<svg width="198" height="40" viewBox="0 0 198 40" fill="none" xmlns="http://www.w3.org/2000/svg">
<path fill-rule="evenodd" clip-rule="evenodd" d="M19.9224 15.6732V10.0908L24.7435 12.8771L19.9224 15.6732ZM24.7435 12.8771L27.2919 14.3508L27.3529 14.3862V34.2929L27.2919 34.3282L19.9224 30.0671V18.612V15.6732L24.7435 12.8771Z" fill="#3533FF"/>
<path d="M27.353 14.3862V14.3154L27.292 14.3508L27.353 14.3862Z" fill="#D8FFFF"/>
<path d="M17.3229 22.8308L7.62944 17.1729L0.078125 21.4206L17.2619 31.4484L17.3229 31.4142L24.812 27.2018L17.3229 22.8308Z" fill="#3533FF"/>
<path d="M17.4547 0L7.59043 5.72143L0.117188 10.0558V10.0839L7.51601 14.317L7.59043 14.2731L24.8657 4.25509V4.24045L17.4547 0Z" fill="#3533FF"/>
<path d="M24.7436 12.8773L24.8656 12.8065V4.25488L7.59033 14.2729V14.3595V22.8233L7.59277 22.8245L14.9391 18.5646L19.9225 15.6733V10.091L24.7436 12.8773Z" fill="#33B6FF"/>
<path d="M7.59042 14.2732L7.51601 14.3171L0.117188 10.084V18.5478V18.6076L0.169644 18.5771L7.59042 22.8236V14.3598V14.2732Z" fill="#B0F2FF"/>
<path d="M7.59205 22.8241L7.59033 22.8232V22.825L7.59205 22.8241Z" fill="#FE9F5C"/>
<path d="M0.0927734 10.0691L0.117172 10.0837V10.0557L0.0927734 10.0691Z" fill="#FE9F5C"/>
<path d="M24.8118 27.2021L17.3228 31.4145V31.4841V39.9772L24.7326 35.8087L24.8863 35.7221V27.2448L24.8118 27.2021Z" fill="#B0F2FF"/>
<path d="M17.2619 31.4487L0.0780754 21.4209L0 21.4648V29.914L9.81061 35.6403L17.2814 40.0003L17.3229 39.9771V31.484L17.2619 31.4487Z" fill="#33B6FF"/>
<path d="M27.3529 5.75315L27.2919 5.71777L19.9224 9.97774V10.0912L27.2919 14.3512L27.3529 14.3158L34.7578 10.0351L27.3529 5.75315Z" fill="#B0F2FF"/>
<path d="M34.7579 10.0352L27.353 14.3159V14.3866V34.2933L34.7836 29.9967V18.6832V10.0486L34.7579 10.0352Z" fill="#33B6FF"/>
<path d="M47.5294 2.62695L55.0981 24.6662L62.7451 2.62695H67.4118L57.8039 30.0779H52.3922L42.7451 2.62695H47.5294Z" fill="#D8FFFF"/>
<path d="M71.4312 11.0386C72.9806 10.1697 74.7337 9.72979 76.5097 9.7641C78.2866 9.72665 80.0451 10.1309 81.6273 10.9406C83.0807 11.7018 84.2903 12.857 85.1175 14.2739C85.996 15.814 86.4494 17.5598 86.4312 19.3327C86.4302 19.8708 86.3909 20.4081 86.3136 20.9406H71.1763V21.1759C71.2835 22.9275 71.8326 24.3131 72.8234 25.3327C73.3416 25.8482 73.9613 26.2503 74.6431 26.5136C75.3249 26.7769 76.0541 26.8956 76.7842 26.8621C77.9512 26.9037 79.1023 26.5816 80.0783 25.9406C80.9722 25.3228 81.6019 24.3922 81.843 23.3327H86.0783C85.7521 25.312 84.7043 27.1002 83.1371 28.3523C81.5293 29.6595 79.5228 30.3131 77.1175 30.3131C75.2155 30.3585 73.3331 29.92 71.6469 29.0386C70.12 28.2202 68.8659 26.9728 68.0391 25.4504C67.1549 23.7998 66.7093 21.9499 66.745 20.0778C66.7034 18.1933 67.1277 16.3276 67.9803 14.6465C68.7604 13.1375 69.9584 11.885 71.4312 11.0386ZM80.392 14.4112C79.3415 13.5606 78.0172 13.1215 76.6665 13.1759C75.3554 13.1509 74.0799 13.6039 73.0783 14.4504C72.5786 14.8732 72.1673 15.3905 71.8678 15.9726C71.5684 16.5547 71.3867 17.1901 71.3332 17.8425H82.1175C82.0117 16.5175 81.3925 15.2863 80.392 14.4112Z" fill="#D8FFFF"/>
<path d="M100.941 13.9598H99.059C97.3047 13.9598 96.0367 14.5284 95.255 15.6657C94.4305 16.9493 94.0199 18.455 94.0786 19.9794V30.0775H89.8433V9.99902H93.608L94.0786 13.0186C94.6275 12.1054 95.3958 11.3438 96.3139 10.8029C97.2276 10.2696 98.4589 9.99902 100 9.99902H100.941V13.9598Z" fill="#D8FFFF"/>
<path d="M107.882 4.3916V9.99944H111.176L112.745 13.7249H107.882V24.1955C107.882 24.9798 108.039 25.5367 108.353 25.8622C108.667 26.1877 109.204 26.3524 109.961 26.3524H113.176V30.0779H109.098C107.189 30.0779 105.804 29.6334 104.941 28.7445C104.078 27.8557 103.647 26.4831 103.647 24.6269V4.3916H107.882Z" fill="#D8FFFF"/>
<path d="M119 11.0384C120.555 10.1665 122.316 9.72649 124.098 9.76392C125.869 9.72972 127.62 10.1339 129.196 10.9404C130.65 11.7016 131.859 12.8568 132.686 14.2737C133.565 15.8138 134.018 17.5597 134 19.3325C133.999 19.8706 133.96 20.4079 133.883 20.9404H118.745V21.1757C118.85 22.9273 119.399 24.3129 120.392 25.3325C120.911 25.8476 121.531 26.2495 122.212 26.5127C122.894 26.776 123.623 26.8949 124.353 26.862C125.52 26.9035 126.671 26.5815 127.647 25.9404C128.541 25.3226 129.171 24.392 129.412 23.3325H133.647C133.316 25.3147 132.261 27.1034 130.686 28.3522C129.079 29.6593 127.072 30.3129 124.667 30.3129C122.758 30.3617 120.869 29.923 119.177 29.0384C117.65 28.22 116.396 26.9727 115.569 25.4502C114.691 23.7978 114.253 21.948 114.294 20.0776C114.253 18.1931 114.677 16.3275 115.53 14.6463C116.315 13.1346 117.52 11.8818 119 11.0384ZM127.941 14.411C126.896 13.5649 125.579 13.1261 124.235 13.1757C122.924 13.1507 121.649 13.6038 120.647 14.4502C120.148 14.8731 119.736 15.3903 119.437 15.9724C119.137 16.5545 118.956 17.1899 118.902 17.8424H129.686C129.576 16.5145 128.949 15.2827 127.941 14.411Z" fill="#D8FFFF"/>
<path d="M149.843 9.80371H154.471L147.333 19.6076L154.902 29.8821H149.961L144.667 22.588L139.333 29.8821H134.745L149.843 9.80371Z" fill="#D8FFFF"/>
<path d="M161.922 4.50928C161.932 4.84839 161.87 5.18583 161.742 5.49988C161.614 5.81394 161.421 6.09766 161.177 6.33281C160.676 6.79865 160.017 7.05762 159.333 7.05762C158.65 7.05762 157.991 6.79865 157.49 6.33281C157.246 6.09766 157.053 5.81394 156.925 5.49988C156.796 5.18583 156.735 4.84839 156.745 4.50928C156.735 4.17016 156.796 3.83273 156.925 3.51867C157.053 3.20462 157.246 2.9209 157.49 2.68575C157.991 2.2199 158.65 1.96094 159.333 1.96094C160.017 1.96094 160.676 2.2199 161.177 2.68575C161.421 2.9209 161.614 3.20462 161.742 3.51867C161.87 3.83273 161.932 4.17016 161.922 4.50928ZM161.451 9.99947V30.0779H157.216V9.99947H161.451Z" fill="#D8FFFF"/>
<path d="M187.098 25.4892L192.549 9.99902H197.059L187.961 33.2186C187.606 34.1742 187.173 35.0989 186.667 35.9833C186.315 36.5828 185.815 37.0822 185.216 37.4343C184.499 37.792 183.702 37.9607 182.902 37.9245H178.353V34.199H181.333C182.145 34.199 182.706 34.0735 183.02 33.8265C183.472 33.3534 183.808 32.7814 184 32.1559L184.824 30.2343L176.98 9.99902H181.49L187.098 25.4892Z" fill="#D8FFFF"/>
<path d="M171.176 9.9995V8.31323C171.129 7.77695 171.291 7.24315 171.627 6.82303C171.828 6.64915 172.062 6.51778 172.314 6.43689C172.567 6.356 172.834 6.32727 173.098 6.35244H176.588V2.62695H172.51C170.599 2.62695 169.187 3.07793 168.274 3.97989C167.362 4.88185 166.904 6.22172 166.902 7.9995V9.9995H163.412V13.725H166.902V30.0779H171.176V13.725H176.357L174.902 9.9995H171.176Z" fill="#D8FFFF"/>
<path d="M140.117 9.99902H135.176L141.404 18.6029L143.886 15.301L140.117 9.99902Z" fill="#D8FFFF"/>
</svg>
