<svg width="192" height="39" viewBox="0 0 192 39" fill="none" xmlns="http://www.w3.org/2000/svg">
<path fill-rule="evenodd" clip-rule="evenodd" d="M19.4111 15.2817V9.8389L24.1085 12.5555L19.4111 15.2817ZM24.1085 12.5556L26.5915 13.9924L26.6509 14.0269V33.4359L26.5915 33.4704L19.4111 29.3157V18.147V15.2817L24.1085 12.5556Z" fill="url(#paint0_linear_139_501)"/>
<path d="M26.6512 14.0269V13.9579L26.5918 13.9924L26.6512 14.0269Z" fill="black"/>
<path d="M16.8783 22.26L7.43363 16.7435L0.0761719 20.8851L16.8188 30.6621L16.8783 30.6288L24.1751 26.5217L16.8783 22.26Z" fill="url(#paint1_linear_139_501)"/>
<path d="M17.0067 0L7.39564 5.5784L0.114258 9.80442V9.83177L7.32314 13.9591L7.39564 13.9163L24.2275 4.14871V4.13443L17.0067 0Z" fill="url(#paint2_linear_139_501)"/>
<path d="M24.1085 12.5555L24.2273 12.4865V4.14868L7.39551 13.9162V14.0007V22.2529L7.39789 22.2541L14.5557 18.1006L19.4111 15.2817V9.83888L24.1085 12.5555Z" fill="url(#paint3_linear_139_501)"/>
<path d="M7.39564 13.9162L7.32314 13.9591L0.114258 9.83176V18.084V18.1423L0.165368 18.1125L7.39564 22.2529V14.0007V13.9162Z" fill="url(#paint4_linear_139_501)"/>
<path d="M7.39719 22.2538L7.39551 22.2529V22.2546L7.39719 22.2538Z" fill="#FE9F5C"/>
<path d="M0.0908203 9.81753L0.114592 9.8318V9.80444L0.0908203 9.81753Z" fill="#FE9F5C"/>
<path d="M24.1748 26.5218L16.8779 30.6289V30.6967V38.9774L24.0975 34.9132L24.2473 34.8287V26.5634L24.1748 26.5218Z" fill="url(#paint5_linear_139_501)"/>
<path d="M16.8187 30.6621L0.076071 20.8851L0 20.9279V29.1658L9.55875 34.749L16.8378 39L16.8782 38.9774V30.6966L16.8187 30.6621Z" fill="url(#paint6_linear_139_501)"/>
<path d="M26.6509 5.60932L26.5915 5.57483L19.4111 9.72829V9.83891L26.5915 13.9924L26.6509 13.9579L33.8657 9.7842L26.6509 5.60932Z" fill="url(#paint7_linear_139_501)"/>
<path d="M33.8662 9.78421L26.6514 13.9579V14.0269V33.4359L33.8911 29.2467V18.216V9.79729L33.8662 9.78421Z" fill="url(#paint8_linear_139_501)"/>
<path d="M46.309 2.56108L53.6833 24.0493L61.134 2.56108H65.6809L56.3197 29.3258H51.0469L41.6475 2.56108H46.309Z" fill="#101010"/>
<path d="M69.597 10.7626C71.1066 9.91544 72.8146 9.48648 74.5451 9.51993C76.2764 9.48342 77.9897 9.87756 79.5313 10.667C80.9474 11.4092 82.126 12.5355 82.9319 13.917C83.7878 15.4186 84.2296 17.1208 84.2119 18.8493C84.2109 19.374 84.1726 19.8978 84.0973 20.417H69.3486V20.6464C69.4531 22.3542 69.988 23.7052 70.9534 24.6993C71.4583 25.2019 72.0621 25.594 72.7264 25.8507C73.3907 26.1074 74.1011 26.2231 74.8125 26.1905C75.9496 26.231 77.0711 25.917 78.0221 25.292C78.893 24.6896 79.5065 23.7824 79.7415 22.7493H83.868C83.5502 24.6791 82.5293 26.4227 81.0024 27.6435C79.4358 28.918 77.4808 29.5552 75.1373 29.5552C73.2841 29.5995 71.45 29.1719 69.8071 28.3126C68.3194 27.5146 67.0975 26.2985 66.2919 24.8141C65.4305 23.2048 64.9963 21.4011 65.031 19.5758C64.9905 17.7384 65.404 15.9194 66.2346 14.2802C66.9947 12.809 68.162 11.5878 69.597 10.7626ZM78.3277 14.0508C77.3041 13.2215 76.0139 12.7934 74.6979 12.8464C73.4204 12.8221 72.1777 13.2638 71.2018 14.0891C70.7149 14.5013 70.3141 15.0057 70.0224 15.5732C69.7306 16.1408 69.5536 16.7603 69.5015 17.3964H80.0089C79.9058 16.1045 79.3026 14.904 78.3277 14.0508Z" fill="#101010"/>
<path d="M98.3493 13.6111H96.5152C94.806 13.6111 93.5706 14.1655 92.809 15.2743C92.0056 16.5258 91.6055 17.9939 91.6627 19.4802V29.3258H87.5361V9.74934H91.2042L91.6627 12.6935C92.1975 11.8031 92.9462 11.0605 93.8406 10.5332C94.7309 10.0132 95.9306 9.74934 97.4323 9.74934H98.3493V13.6111Z" fill="#101010"/>
<path d="M105.113 4.28168V9.74932H108.322L109.851 13.3817H105.113V23.5905C105.113 24.3552 105.266 24.8981 105.571 25.2155C105.877 25.5329 106.401 25.6934 107.138 25.6934H110.271V29.3258H106.297C104.438 29.3258 103.088 28.8925 102.247 28.0258C101.407 27.1591 100.986 25.8209 100.986 24.0111V4.28168H105.113Z" fill="#101010"/>
<path d="M115.945 10.7626C117.461 9.91245 119.176 9.48341 120.912 9.51991C122.637 9.48656 124.344 9.88061 125.88 10.667C127.296 11.4091 128.474 12.5355 129.28 13.917C130.136 15.4185 130.578 17.1207 130.56 18.8493C130.559 19.3739 130.521 19.8978 130.446 20.417H115.697V20.6464C115.799 22.3542 116.334 23.7052 117.302 24.6993C117.807 25.2015 118.411 25.5933 119.075 25.85C119.739 26.1067 120.449 26.2226 121.161 26.1905C122.298 26.231 123.419 25.917 124.37 25.292C125.241 24.6896 125.855 23.7823 126.09 22.7493H130.216C129.894 24.6819 128.866 26.4259 127.331 27.6434C125.765 28.918 123.81 29.5552 121.466 29.5552C119.607 29.6027 117.766 29.175 116.117 28.3126C114.629 27.5146 113.407 26.2984 112.602 24.814C111.747 23.203 111.32 21.3994 111.36 19.5758C111.32 17.7384 111.733 15.9194 112.564 14.2802C113.329 12.8063 114.503 11.5849 115.945 10.7626ZM124.657 14.0508C123.638 13.2259 122.356 12.798 121.046 12.8464C119.769 12.822 118.526 13.2637 117.55 14.089C117.063 14.5013 116.662 15.0057 116.371 15.5732C116.079 16.1407 115.902 16.7603 115.85 17.3964H126.357C126.249 16.1017 125.639 14.9008 124.657 14.0508Z" fill="#101010"/>
<path d="M145.997 9.55882H150.505L143.551 19.1176L150.926 29.1353H146.111L140.953 22.0235L135.757 29.1353H131.286L145.997 9.55882Z" fill="#101010"/>
<path d="M157.764 4.39639C157.774 4.72703 157.714 5.05603 157.589 5.36223C157.464 5.66843 157.277 5.94506 157.038 6.17433C156.55 6.62853 155.909 6.88102 155.243 6.88102C154.576 6.88102 153.935 6.62853 153.447 6.17433C153.208 5.94506 153.021 5.66843 152.896 5.36223C152.771 5.05603 152.711 4.72703 152.721 4.39639C152.711 4.06575 152.771 3.73676 152.896 3.43055C153.021 3.12435 153.208 2.84772 153.447 2.61845C153.935 2.16425 154.576 1.91176 155.243 1.91176C155.909 1.91176 156.55 2.16425 157.038 2.61845C157.277 2.84772 157.464 3.12435 157.589 3.43055C157.714 3.73676 157.774 4.06575 157.764 4.39639ZM157.306 9.74933V29.3258H153.179V9.74933H157.306Z" fill="#101010"/>
<path d="M182.294 24.8523L187.605 9.74934H192L183.135 32.3885C182.79 33.3202 182.368 34.2218 181.874 35.084C181.531 35.6685 181.044 36.1555 180.46 36.4988C179.762 36.8475 178.986 37.012 178.206 36.9767H173.774V33.3443H176.678C177.469 33.3443 178.015 33.222 178.321 32.9811C178.761 32.5199 179.088 31.9622 179.276 31.3523L180.078 29.4788L172.437 9.74934H176.831L182.294 24.8523Z" fill="#101010"/>
<path d="M166.782 9.74932V8.1052C166.736 7.58233 166.894 7.06187 167.222 6.65226C167.417 6.48272 167.645 6.35464 167.891 6.27577C168.137 6.1969 168.397 6.16889 168.654 6.19343H172.055V2.56108H168.081C166.219 2.56108 164.844 3.00079 163.955 3.8802C163.066 4.75961 162.62 6.06598 162.617 7.79932V9.74932H159.217V13.3817H162.617V29.3258H166.782V13.3817H171.83L170.412 9.74932H166.782Z" fill="#101010"/>
<path d="M136.52 9.74934H131.706L137.774 18.1382L140.192 14.9188L136.52 9.74934Z" fill="#101010"/>
<defs>
<linearGradient id="paint0_linear_139_501" x1="23.0388" y1="11.8942" x2="32.5639" y2="19.9255" gradientUnits="userSpaceOnUse">
<stop stop-color="#F4DFFE"/>
<stop offset="1" stop-color="#F8A9FA"/>
</linearGradient>
<linearGradient id="paint1_linear_139_501" x1="20.6022" y1="28.5461" x2="11.5539" y2="13.8186" gradientUnits="userSpaceOnUse">
<stop stop-color="#0567E6"/>
<stop offset="1" stop-color="#AE82FE"/>
</linearGradient>
<linearGradient id="paint2_linear_139_501" x1="20.6524" y1="11.8369" x2="11.5684" y2="-2.91468" gradientUnits="userSpaceOnUse">
<stop stop-color="#9556FD"/>
<stop offset="1" stop-color="#FF2295"/>
</linearGradient>
<linearGradient id="paint3_linear_139_501" x1="24.2273" y1="6.89863" x2="7.36439" y2="18.6363" gradientUnits="userSpaceOnUse">
<stop stop-color="#FF2192"/>
<stop offset="1" stop-color="#FEC200"/>
</linearGradient>
<linearGradient id="paint4_linear_139_501" x1="7.39026" y1="15.9976" x2="1.65415" y2="18.9972" gradientUnits="userSpaceOnUse">
<stop stop-color="#FCDE7E"/>
<stop offset="1" stop-color="#FBCD05"/>
</linearGradient>
<linearGradient id="paint5_linear_139_501" x1="24.2271" y1="26.5242" x2="22.3039" y2="39.8019" gradientUnits="userSpaceOnUse">
<stop stop-color="#FEABFD"/>
<stop offset="1" stop-color="#00ABFD"/>
</linearGradient>
<linearGradient id="paint6_linear_139_501" x1="-0.0202116" y1="24.9779" x2="16.8639" y2="34.8994" gradientUnits="userSpaceOnUse">
<stop stop-color="#FF2192"/>
<stop offset="1" stop-color="#FEC200"/>
</linearGradient>
<linearGradient id="paint7_linear_139_501" x1="31.7227" y1="12.7127" x2="26.2303" y2="3.84634" gradientUnits="userSpaceOnUse">
<stop stop-color="#0567E6"/>
<stop offset="1" stop-color="#AE82FE"/>
</linearGradient>
<linearGradient id="paint8_linear_139_501" x1="32.8178" y1="29.8402" x2="23.6566" y2="27.204" gradientUnits="userSpaceOnUse">
<stop stop-color="#9556FD"/>
<stop offset="1" stop-color="#FF2295"/>
</linearGradient>
</defs>
</svg>
