<svg width="293" height="353" viewBox="0 0 293 353" fill="none" xmlns="http://www.w3.org/2000/svg">
<path d="M146.225 60.7177C180.06 60.7124 212.85 72.4298 239.009 93.8735C265.167 115.317 283.075 145.16 289.68 178.318C296.286 211.475 291.181 245.896 275.236 275.714C259.29 305.532 233.49 328.904 202.232 341.846C170.974 354.788 136.192 356.5 103.812 346.69C71.4324 336.88 43.4586 316.155 24.6573 288.047C5.85591 259.939 -2.60974 226.187 0.702779 192.541C4.0153 158.895 18.901 127.438 42.8236 103.529C56.3846 89.9364 72.5012 79.1563 90.2466 71.809C107.992 64.4618 127.016 60.6924 146.225 60.7177ZM195.747 21.5882C193.839 21.3732 192.061 20.5167 190.705 19.1593C189.349 17.8019 188.494 16.0241 188.282 14.1176L186.563 0L184.844 14.1176C184.629 16.0238 183.772 17.8002 182.413 19.1555C181.054 20.5108 179.275 21.3645 177.367 21.5765L163.238 23.2941L177.367 25.0118C179.275 25.2284 181.054 26.0851 182.412 27.442C183.77 28.7988 184.627 30.5757 184.844 32.4824L186.551 46.6L188.27 32.4824C188.489 30.5796 189.346 28.8068 190.701 27.4525C192.057 26.0982 193.831 25.2421 195.735 25.0235L209.864 23.3059L195.735 21.5882H195.747ZM262.224 48.4118C258.871 48.0323 255.745 46.5289 253.357 44.1467C250.968 41.7645 249.458 38.644 249.072 35.2941L246.07 10.3882L243.032 35.2941C242.649 38.6475 241.14 41.7722 238.752 44.1588C236.364 46.5453 233.236 48.0528 229.88 48.4353L204.99 51.4471L229.88 54.4706C233.237 54.8511 236.365 56.3579 238.754 58.7448C241.143 61.1317 242.651 64.2577 243.032 67.6118L246.07 92.4588L249.096 67.5882C249.474 64.2333 250.982 61.1063 253.371 58.719C255.76 56.3316 258.89 54.8255 262.247 54.4471L287.138 51.4235L262.247 48.4118H262.224ZM212.231 86.1412C211.426 88.6927 210.365 91.1563 209.063 93.4941C221.118 99.829 232.217 107.834 242.031 117.271C242.612 114.722 243.071 112.106 243.409 109.424C234.184 100.228 223.698 92.3886 212.266 86.1412H212.231ZM253.546 120.741C253.124 123.221 252.55 125.673 251.827 128.082C259.716 137.887 266.017 148.868 270.501 160.624C271.286 157.745 271.91 154.792 272.373 151.765C267.494 140.637 261.159 130.205 253.535 120.741H253.546ZM279.45 172.365C278.489 174.81 277.396 177.202 276.176 179.529C278.095 188.104 279.324 196.818 279.85 205.588C278.53 197.899 276.685 190.308 274.328 182.871C268.517 192.585 261.205 201.321 252.663 208.753C256.526 222.818 258.61 237.311 258.868 251.894C268.314 242.875 276.451 232.579 283.041 221.306C283.546 216.467 283.801 211.606 283.806 206.741C283.813 195.117 282.345 183.538 279.438 172.282L279.45 172.365ZM280.227 238.141C273.761 245.911 266.626 253.099 258.904 259.624C258.739 268.209 258.067 276.777 256.89 285.282C257.193 277.403 257.063 269.513 256.502 261.647C241.996 273.557 226.065 283.618 209.075 291.6C210.088 297.318 211.01 303.102 211.842 308.953C210.461 303.329 209.028 297.78 207.545 292.306C192.581 299.339 176.741 304.333 160.448 307.153C173.399 304.106 189.801 297.929 206.685 289.071C202.399 273.557 197.69 258.62 192.556 244.259C170.026 253.195 146.388 259.041 122.288 261.635C127.162 274.365 132.621 287.435 138.666 300.847C131.138 288.016 124.348 275.075 118.296 262.024C111.639 262.573 104.955 262.719 98.2801 262.459C104.379 261.929 110.796 261.188 117.425 260.224C110.987 246.205 105.373 231.824 100.611 217.153C83.6565 219.624 67.9733 220.388 55.3042 219.4C70.1501 218.461 84.9189 216.555 99.5163 213.694C94.0979 196.455 90.0042 178.827 87.2712 160.965C72.2081 163.529 59.1505 163.871 48.0984 161.988C45.6665 177.118 45.4127 192.517 47.3449 207.718C42.4386 192.638 40.9348 176.659 42.9413 160.929C37.4798 159.622 32.2532 157.479 27.4465 154.576C32.4185 156.905 37.7416 158.395 43.2004 158.988C45.4375 142.894 51.0891 126.29 60.1552 109.176C57.6305 108.376 55.2468 107.185 53.0907 105.647C51.666 106.953 50.2884 108.282 48.9226 109.635C33.8472 124.679 22.4729 143.013 15.6957 163.196C8.91841 183.379 6.92327 204.858 9.86738 225.943C12.8115 247.027 20.6144 267.14 32.6616 284.699C44.7089 302.257 60.6714 316.781 79.292 327.127C97.9127 337.473 118.683 343.357 139.967 344.318C161.251 345.278 182.467 341.288 201.945 332.661C221.424 324.035 238.631 311.007 252.213 294.605C265.795 278.203 275.381 258.875 280.215 238.141H280.227ZM56.0931 102.906C75.1555 114.047 111.432 102.353 127.81 88.3765C138.701 79.0941 144.541 68.5882 129.847 70.2588C101.341 73.5059 76.5213 84.7059 56.0931 102.906ZM156.751 69.7059C156.289 71.0954 155.706 72.4417 155.008 73.7294C169.599 77.095 183.842 81.8216 197.548 87.8471C198.457 85.3104 199.07 82.6772 199.373 80C185.806 74.3294 171.415 70.8736 156.751 69.7647V69.7059ZM205.413 99.2471C200.832 105.395 195.505 110.951 189.554 115.788C202.628 126.534 214.396 138.774 224.617 152.259C231.241 144.259 236.37 135.133 239.759 125.318C229.538 115.145 217.994 106.392 205.437 99.2941L205.413 99.2471ZM249.06 135.612C244.679 145.212 238.542 153.911 230.963 161.259C238.875 173.181 245.226 186.066 249.861 199.6C258.061 190.128 264.368 179.174 268.441 167.329C263.419 155.919 256.884 145.235 249.013 135.565L249.06 135.612ZM152.512 77.5647C150.317 80.4128 147.809 83.0056 145.035 85.2941C158.017 92.6529 170.469 100.908 182.301 110C187.33 105.232 191.602 99.7254 194.97 93.6706C181.368 87.0066 167.179 81.615 152.583 77.5647H152.512ZM184.691 119.624C173.778 127.753 162.079 134.772 149.769 140.576C159.978 155.848 169.031 171.861 176.849 188.482C193.227 180.247 208.098 170.153 219.66 157.894C209.65 143.742 197.91 130.893 184.714 119.647L184.691 119.624ZM225.382 166.471C212.737 177.541 196.877 186.941 179.64 194.612C185.966 208.729 191.446 223.21 196.053 237.977C214.35 229.647 231.222 218.941 244.539 205.388C239.563 191.769 233.14 178.723 225.382 166.471ZM247.247 213.4C232.941 224.953 215.633 234.647 197.348 242.282C201.87 257.365 205.569 272.681 208.428 288.165C225.596 279.107 241.541 267.904 255.878 254.824C254.432 240.756 251.54 226.875 247.247 213.4ZM138.925 89.8706L137.571 90.7882C131.671 94.6386 125.469 98.0065 119.026 100.859C128.686 111.753 137.694 123.208 146.001 135.165C157.388 129.407 168.058 122.33 177.791 114.082C165.747 104.641 152.72 96.524 138.936 89.8706H138.925ZM143.517 143.529C133.289 148.111 122.781 152.041 112.056 155.294C105.776 157.082 99.744 158.565 93.9589 159.741C96.7823 177.545 100.715 195.156 105.733 212.471C126.997 207.988 149.71 201.212 170.491 191.624C162.481 175.062 153.473 159.001 143.517 143.529ZM173.211 197.412C151.837 206.122 129.561 212.435 106.793 216.235C110.906 230.204 115.796 244.678 121.463 259.659C143.834 256.129 168.36 249.941 191.049 240.271C185.554 225.369 179.608 211.094 173.211 197.447V197.412ZM113.822 103.082C106.218 106.136 98.3301 108.43 90.2736 109.929C90.1069 124.961 91.1068 139.982 93.2642 154.859C100.542 153.141 107.726 151.048 114.787 148.588C123.415 145.601 131.867 142.129 140.102 138.188C131.996 126.011 123.223 114.292 113.822 103.082ZM48.5459 159.482C59.6725 160.224 72.8242 159.094 86.6118 156.318C84.5233 141.269 83.4494 126.098 83.3975 110.906C78.9903 111.388 74.5476 111.455 70.1279 111.106C68.9505 111 67.9026 110.871 66.8194 110.718C57.8904 125.766 51.6997 142.276 48.5341 159.482H48.5459Z" fill="#101010"/>
</svg>
