<svg width="522" height="600" viewBox="0 0 522 600" fill="none" xmlns="http://www.w3.org/2000/svg">
<g opacity="0.72">
<path fill-rule="evenodd" clip-rule="evenodd" d="M298.837 235.103V151.368L371.154 193.163L298.837 235.103ZM371.154 193.163L409.38 215.268L410.295 215.798V514.399L409.38 514.929L298.837 451.012V279.186V235.104L371.154 193.163Z" fill="#F6F6F6"/>
<path d="M410.296 215.798V214.737L409.381 215.268L410.296 215.798Z" fill="#101010"/>
<path d="M259.843 342.462L114.441 257.592L1.17114 321.309L258.928 471.725L259.843 471.213L372.18 408.027L259.843 342.462Z" fill="#F6F6F6"/>
<path d="M261.82 0L113.856 85.8215L1.75708 150.837V151.258L112.739 214.755L113.856 214.096L372.985 63.8263V63.6067L261.82 0Z" fill="#F6F6F6"/>
<path d="M371.155 193.162L372.985 192.1V63.8256L113.855 214.096V215.395V342.352L113.892 342.37L224.087 278.471L298.838 235.103V151.367L371.155 193.162Z" fill="#E7E7E7"/>
<path d="M113.856 214.096L112.739 214.755L1.75708 151.258V278.215V279.112L2.54393 278.655L113.856 342.353V215.396V214.096Z" fill="#DBDBDB"/>
<path d="M113.881 342.367L113.855 342.354V342.379L113.881 342.367Z" fill="#FE9F5C"/>
<path d="M1.39087 151.039L1.75685 151.258V150.837L1.39087 151.039Z" fill="#FE9F5C"/>
<path d="M372.18 408.027L259.843 471.213V472.256V599.653L370.99 537.126L373.296 535.827V408.668L372.18 408.027Z" fill="#DBDBDB"/>
<path d="M258.928 471.725L1.17113 321.309L0 321.967V448.705L147.159 534.6L259.221 600L259.843 599.652V472.256L258.928 471.725Z" fill="#E7E7E7"/>
<path d="M410.295 86.2973L409.38 85.7667L298.837 149.666V151.368L409.38 215.268L410.295 214.737L521.369 150.526L410.295 86.2973Z" fill="#DBDBDB"/>
<path d="M521.37 150.526L410.297 214.737V215.798V514.399L521.755 449.95V280.247V150.728L521.37 150.526Z" fill="#E7E7E7"/>
</g>
</svg>
