<svg width="351" height="404" viewBox="0 0 351 404" fill="none" xmlns="http://www.w3.org/2000/svg">
<g opacity="0.12">
<path fill-rule="evenodd" clip-rule="evenodd" d="M200.838 158.005V101.729L249.44 129.818L200.838 158.005ZM249.44 129.819L275.131 144.675L275.746 145.032V345.711L275.131 346.068L200.838 303.111V187.632V158.006L249.44 129.819Z" fill="#FFC410"/>
<path d="M275.746 145.03V144.316L275.131 144.673L275.746 145.03Z" fill="#101010"/>
<path d="M174.632 230.158L76.9119 173.12L0.787109 215.942L174.017 317.032L174.632 316.687L250.13 274.222L174.632 230.158Z" fill="#F3136B"/>
<path d="M175.96 0L76.5186 57.6777L1.18091 101.373V101.655L75.7684 144.33L76.5186 143.887L250.671 42.8955V42.7479L175.96 0Z" fill="#9747FF"/>
<path d="M249.441 129.818L250.67 129.105V42.8955L76.5181 143.887V144.76V230.084L76.5427 230.096L150.601 187.151L200.839 158.005V101.729L249.441 129.818Z" fill="#63C0AD"/>
<path d="M76.5186 143.887L75.7684 144.329L1.18091 101.655V186.979V187.582L1.70972 187.274L76.5186 230.084V144.76V143.887Z" fill="#FFC410"/>
<path d="M76.5354 230.094L76.5181 230.085V230.102L76.5354 230.094Z" fill="#FE9F5C"/>
<path d="M0.934814 101.509L1.18078 101.657V101.374L0.934814 101.509Z" fill="#FE9F5C"/>
<path d="M250.13 274.22L174.632 316.685V317.386V403.005L249.331 360.982L250.88 360.109V274.65L250.13 274.22Z" fill="#45B2C9"/>
<path d="M174.017 317.029L0.787078 215.939L0 216.382V301.558L98.9007 359.285L174.214 403.238L174.632 403.005V317.386L174.017 317.029Z" fill="#82027D"/>
<path d="M275.746 57.9963L275.131 57.6396L200.838 100.584V101.728L275.131 144.673L275.746 144.316L350.395 101.162L275.746 57.9963Z" fill="#FE7316"/>
<path d="M350.396 101.165L275.747 144.319V145.032V345.711L350.654 302.398V188.346V101.3L350.396 101.165Z" fill="#FE0000"/>
</g>
</svg>
