<svg width="198" height="40" viewBox="0 0 198 40" fill="none" xmlns="http://www.w3.org/2000/svg">
<path fill-rule="evenodd" clip-rule="evenodd" d="M19.9224 15.6735V10.0912L24.7435 12.8775L19.9224 15.6735ZM24.7435 12.8775L27.2919 14.3512L27.3529 14.3866V34.2932L27.2919 34.3286L19.9224 30.0674V18.6124V15.6736L24.7435 12.8775Z" fill="url(#paint0_linear_58_489)"/>
<path d="M27.353 14.3865V14.3158L27.292 14.3511L27.353 14.3865Z" fill="white"/>
<path d="M17.3229 22.8308L7.62944 17.1728L0.078125 21.4206L17.2619 31.4483L17.3229 31.4142L24.812 27.2018L17.3229 22.8308Z" fill="url(#paint1_linear_58_489)"/>
<path d="M17.4547 0L7.59043 5.72143L0.117188 10.0558V10.0839L7.51601 14.317L7.59043 14.2731L24.8657 4.25509V4.24045L17.4547 0Z" fill="url(#paint2_linear_58_489)"/>
<path d="M24.7436 12.8775L24.8656 12.8067V4.25505L7.59033 14.273V14.3597V22.8235L7.59277 22.8247L14.9391 18.5647L19.9225 15.6735V10.0912L24.7436 12.8775Z" fill="url(#paint3_linear_58_489)"/>
<path d="M7.59043 14.2731L7.51601 14.317L0.117188 10.0839V18.5477V18.6075L0.169644 18.577L7.59043 22.8235V14.3597V14.2731Z" fill="url(#paint4_linear_58_489)"/>
<path d="M7.59205 22.8244L7.59033 22.8235V22.8253L7.59205 22.8244Z" fill="#FE9F5C"/>
<path d="M0.0927734 10.0693L0.117172 10.0839V10.0558L0.0927734 10.0693Z" fill="#FE9F5C"/>
<path d="M24.8121 27.2018L17.323 31.4142V31.4838V39.9768L24.7328 35.8084L24.8865 35.7218V27.2445L24.8121 27.2018Z" fill="url(#paint5_linear_58_489)"/>
<path d="M17.2619 31.4483L0.0780753 21.4206L0 21.4645V29.9137L9.81061 35.64L17.2814 40L17.3229 39.9768V31.4837L17.2619 31.4483Z" fill="url(#paint6_linear_58_489)"/>
<path d="M27.3529 5.75315L27.2919 5.71777L19.9224 9.97774V10.0912L27.2919 14.3512L27.3529 14.3158L34.7578 10.0351L27.3529 5.75315Z" fill="url(#paint7_linear_58_489)"/>
<path d="M34.7579 10.0351L27.353 14.3158V14.3865V34.2932L34.7836 29.9967V18.6831V10.0485L34.7579 10.0351Z" fill="url(#paint8_linear_58_489)"/>
<path d="M47.5294 2.62675L55.0981 24.666L62.7451 2.62675H67.4118L57.8039 30.0777H52.3922L42.7451 2.62675H47.5294Z" fill="white"/>
<path d="M71.4315 11.0386C72.9809 10.1697 74.7339 9.72973 76.5099 9.76404C78.2869 9.72659 80.0454 10.1308 81.6276 10.9405C83.081 11.7017 84.2906 12.857 85.1178 14.2738C85.9962 15.8139 86.4496 17.5598 86.4315 19.3327C86.4305 19.8707 86.3912 20.408 86.3138 20.9405H71.1766V21.1758C71.2838 22.9274 71.8328 24.3131 72.8236 25.3327C73.3418 25.8481 73.9615 26.2502 74.6434 26.5135C75.3252 26.7768 76.0543 26.8955 76.7844 26.8621C77.9514 26.9036 79.1025 26.5816 80.0785 25.9405C80.9724 25.3227 81.6021 24.3922 81.8433 23.3327H86.0786C85.7524 25.3119 84.7046 27.1002 83.1374 28.3523C81.5295 29.6595 79.523 30.3131 77.1178 30.3131C75.2157 30.3584 73.3333 29.9199 71.6472 29.0386C70.1202 28.2201 68.8661 26.9728 68.0393 25.4503C67.1552 23.7998 66.7096 21.9499 66.7452 20.0778C66.7037 18.1932 67.128 16.3276 67.9805 14.6464C68.7606 13.1374 69.9587 11.8849 71.4315 11.0386ZM80.3923 14.4111C79.3417 13.5605 78.0174 13.1214 76.6668 13.1758C75.3556 13.1508 74.0802 13.6039 73.0785 14.4503C72.5789 14.8732 72.1675 15.3905 71.8681 15.9725C71.5686 16.5546 71.3869 17.1901 71.3335 17.8425H82.1178C82.0119 16.5175 81.3928 15.2862 80.3923 14.4111Z" fill="white"/>
<path d="M100.941 13.9601H99.059C97.3047 13.9601 96.0367 14.5287 95.255 15.666C94.4305 16.9496 94.0199 18.4553 94.0786 19.9797V30.0778H89.8433V9.99933H93.608L94.0786 13.0189C94.6275 12.1057 95.3958 11.3441 96.3139 10.8032C97.2276 10.2699 98.4589 9.99933 100 9.99933H100.941V13.9601Z" fill="white"/>
<path d="M107.883 4.39146V9.99931H111.177L112.745 13.7248H107.883V24.1954C107.883 24.9797 108.039 25.5366 108.353 25.8621C108.667 26.1875 109.204 26.3522 109.961 26.3522H113.177V30.0777H109.098C107.19 30.0777 105.804 29.6333 104.941 28.7444C104.079 27.8555 103.647 26.483 103.647 24.6268V4.39146H107.883Z" fill="white"/>
<path d="M119 11.0385C120.555 10.1666 122.315 9.7266 124.098 9.76403C125.868 9.72983 127.62 10.134 129.196 10.9405C130.649 11.7017 131.859 12.8569 132.686 14.2738C133.565 15.8139 134.018 17.5598 134 19.3327C133.999 19.8707 133.96 20.408 133.882 20.9405H118.745V21.1758C118.85 22.9274 119.399 24.313 120.392 25.3327C120.911 25.8477 121.53 26.2496 122.212 26.5128C122.894 26.7761 123.623 26.895 124.353 26.8621C125.52 26.9036 126.671 26.5816 127.647 25.9405C128.541 25.3227 129.171 24.3922 129.412 23.3327H133.647C133.316 25.3148 132.261 27.1035 130.686 28.3523C129.078 29.6595 127.072 30.313 124.667 30.313C122.758 30.3618 120.868 29.9231 119.176 29.0385C117.649 28.2201 116.395 26.9728 115.569 25.4503C114.691 23.7979 114.252 21.9481 114.294 20.0778C114.252 18.1932 114.677 16.3276 115.529 14.6464C116.315 13.1347 117.52 11.8819 119 11.0385ZM127.941 14.4111C126.896 13.565 125.579 13.1262 124.235 13.1758C122.924 13.1508 121.649 13.6039 120.647 14.4503C120.147 14.8732 119.736 15.3904 119.437 15.9725C119.137 16.5546 118.955 17.1901 118.902 17.8425H129.686C129.575 16.5146 128.949 15.2829 127.941 14.4111Z" fill="white"/>
<path d="M149.843 9.80392H154.471L147.333 19.6078L154.902 29.8824H149.961L144.667 22.5882L139.333 29.8824H134.745L149.843 9.80392Z" fill="white"/>
<path d="M161.922 4.50913C161.932 4.84824 161.87 5.18567 161.742 5.49973C161.614 5.81378 161.421 6.09751 161.177 6.33265C160.676 6.7985 160.017 7.05747 159.333 7.05747C158.65 7.05747 157.991 6.7985 157.49 6.33265C157.246 6.09751 157.053 5.81378 156.925 5.49973C156.796 5.18567 156.735 4.84824 156.745 4.50913C156.735 4.17001 156.796 3.83258 156.925 3.51852C157.053 3.20447 157.246 2.92074 157.49 2.6856C157.991 2.21975 158.65 1.96078 159.333 1.96078C160.017 1.96078 160.676 2.21975 161.177 2.6856C161.421 2.92074 161.614 3.20447 161.742 3.51852C161.87 3.83258 161.932 4.17001 161.922 4.50913ZM161.451 9.99932V30.0778H157.216V9.99932H161.451Z" fill="white"/>
<path d="M187.098 25.4895L192.549 9.99933H197.059L187.961 33.2189C187.606 34.1745 187.173 35.0992 186.667 35.9836C186.315 36.5831 185.815 37.0825 185.216 37.4346C184.499 37.7923 183.702 37.9611 182.902 37.9248H178.353V34.1993H181.333C182.145 34.1993 182.706 34.0738 183.02 33.8268C183.472 33.3537 183.808 32.7817 184 32.1562L184.824 30.2346L176.98 9.99933H181.49L187.098 25.4895Z" fill="white"/>
<path d="M171.177 9.9993V8.31303C171.129 7.77676 171.291 7.24295 171.628 6.82283C171.828 6.64895 172.062 6.51758 172.315 6.43669C172.567 6.3558 172.834 6.32707 173.098 6.35224H176.588V2.62675H172.51C170.599 2.62675 169.187 3.07774 168.275 3.9797C167.362 4.88166 166.905 6.22153 166.902 7.9993V9.9993H163.412V13.7248H166.902V30.0777H171.177V13.7248H176.357L174.902 9.9993H171.177Z" fill="white"/>
<path d="M140.118 9.99933H135.177L141.404 18.6032L143.886 15.3013L140.118 9.99933Z" fill="white"/>
<defs>
<linearGradient id="paint0_linear_58_489" x1="19.9999" y1="10.1961" x2="14.1455" y2="13.9927" gradientUnits="userSpaceOnUse">
<stop stop-color="#101010"/>
<stop offset="1" stop-color="#C9F7CA"/>
</linearGradient>
<linearGradient id="paint1_linear_58_489" x1="7.64711" y1="17.2549" x2="4.24508" y2="21.6972" gradientUnits="userSpaceOnUse">
<stop stop-color="#101010"/>
<stop offset="1" stop-color="#C9F7CA"/>
</linearGradient>
<linearGradient id="paint2_linear_58_489" x1="20.3922" y1="1.7647" x2="3.58057" y2="2.70018" gradientUnits="userSpaceOnUse">
<stop stop-color="#101010"/>
<stop offset="1" stop-color="#C9F7CA"/>
</linearGradient>
<linearGradient id="paint3_linear_58_489" x1="10.3828" y1="20.2772" x2="22.1437" y2="19.925" gradientUnits="userSpaceOnUse">
<stop stop-color="#101010"/>
<stop offset="1" stop-color="#C9F7CA"/>
</linearGradient>
<linearGradient id="paint4_linear_58_489" x1="4.79382e-05" y1="10.1961" x2="-3.56699" y2="16.2104" gradientUnits="userSpaceOnUse">
<stop stop-color="#101010"/>
<stop offset="1" stop-color="#C9F7CA"/>
</linearGradient>
<linearGradient id="paint5_linear_58_489" x1="17.255" y1="40" x2="24.4077" y2="40.1629" gradientUnits="userSpaceOnUse">
<stop stop-color="#101010"/>
<stop offset="1" stop-color="#C9F7CA"/>
</linearGradient>
<linearGradient id="paint6_linear_58_489" x1="3.47098e-07" y1="25.6863" x2="-0.598585" y2="34.4696" gradientUnits="userSpaceOnUse">
<stop stop-color="#101010"/>
<stop offset="1" stop-color="#C9F7CA"/>
</linearGradient>
<linearGradient id="paint7_linear_58_489" x1="27.2548" y1="5.68627" x2="23.259" y2="11.7453" gradientUnits="userSpaceOnUse">
<stop stop-color="#101010"/>
<stop offset="1" stop-color="#C9F7CA"/>
</linearGradient>
<linearGradient id="paint8_linear_58_489" x1="27.2862" y1="34.3372" x2="34.3158" y2="34.42" gradientUnits="userSpaceOnUse">
<stop stop-color="#101010"/>
<stop offset="1" stop-color="#C9F7CA"/>
</linearGradient>
</defs>
</svg>
