<svg width="127" height="40" viewBox="0 0 127 40" fill="none" xmlns="http://www.w3.org/2000/svg">
<path fill-rule="evenodd" clip-rule="evenodd" d="M28.8223 7.00043L20.75 4.83746C20.1927 4.68814 19.741 5.03479 19.741 5.61172V13.9688C19.741 14.5457 20.1927 15.1345 20.75 15.2838L28.8223 17.4468C29.3796 17.5961 29.8314 17.2494 29.8314 16.6725V8.31543C29.8314 7.7385 29.3796 7.14975 28.8223 7.00043ZM20.75 1.70356C18.5209 1.10627 16.7139 2.49287 16.7139 4.80061V13.1577C16.7139 15.4654 18.5209 17.8204 20.75 18.4177L28.8223 20.5807C31.0514 21.178 32.8585 19.7914 32.8585 17.4836V9.12655C32.8585 6.8188 31.0514 4.46381 28.8223 3.86652L20.75 1.70356Z" fill="#D8FFFF"/>
<path fill-rule="evenodd" clip-rule="evenodd" d="M22.4845 13.8087L12.3941 11.105C11.8368 10.9557 11.385 11.3024 11.385 11.8793V22.3256C11.385 22.9026 11.8368 23.4913 12.3941 23.6406L22.4845 26.3444C23.0417 26.4937 23.4935 26.147 23.4935 25.5701V15.1238C23.4935 14.5468 23.0417 13.9581 22.4845 13.8087ZM12.3941 7.97113C10.165 7.37385 8.35791 8.76044 8.35791 11.0682V21.5145C8.35791 23.8223 10.165 26.1773 12.3941 26.7745L22.4845 29.4783C24.7136 30.0755 26.5206 28.689 26.5206 26.3812V15.9349C26.5206 13.6271 24.7136 11.2721 22.4845 10.6748L12.3941 7.97113Z" fill="#D8FFFF"/>
<path fill-rule="evenodd" clip-rule="evenodd" d="M16.1446 20.6176L4.03616 17.3731C3.47888 17.2238 3.02712 17.5704 3.02712 18.1474V30.683C3.02712 31.2599 3.47888 31.8487 4.03616 31.998L16.1446 35.2424C16.7019 35.3918 17.1537 35.0451 17.1537 34.4682V21.9326C17.1537 21.3556 16.7019 20.7669 16.1446 20.6176ZM4.03616 14.2392C1.80705 13.6419 0 15.0285 0 17.3363V29.8719C0 32.1796 1.80705 34.5346 4.03616 35.1319L16.1446 38.3763C18.3737 38.9736 20.1808 37.587 20.1808 35.2793V22.7437C20.1808 20.4359 18.3737 18.0809 16.1446 17.4837L4.03616 14.2392Z" fill="#D8FFFF"/>
<path d="M44.6998 27.1732C45.6487 27.6087 46.7376 27.8265 47.9665 27.8265C49.1954 27.8265 50.2687 27.6165 51.1865 27.1965C52.1198 26.7609 52.8432 26.1543 53.3565 25.3765C53.8698 24.5832 54.1265 23.6576 54.1265 22.5998V22.3198C54.1265 21.3398 53.9009 20.5465 53.4498 19.9398C52.9987 19.3176 52.4232 18.8587 51.7232 18.5632C51.0387 18.2676 50.3309 18.1198 49.5998 18.1198H48.7365V17.7465L53.6598 15.1332V11.1665H42.0865V13.8265H50.3465V14.1998L45.0732 16.9998V20.2665H48.3398C48.8687 20.2665 49.3432 20.3443 49.7632 20.4998C50.1832 20.6398 50.5176 20.8654 50.7665 21.1765C51.0154 21.4876 51.1398 21.8921 51.1398 22.3898V22.6232C51.1398 23.3543 50.8598 23.9609 50.2998 24.4432C49.7554 24.9254 48.9776 25.1665 47.9665 25.1665C46.9709 25.1665 46.1698 24.9098 45.5632 24.3965C44.9565 23.8676 44.6532 23.1676 44.6532 22.2965V21.9698H41.6665V22.3898C41.6665 23.5098 41.9309 24.4821 42.4598 25.3065C43.0043 26.1154 43.7509 26.7376 44.6998 27.1732Z" fill="#D8FFFF"/>
<path fill-rule="evenodd" clip-rule="evenodd" d="M64.8691 11.7965C64.0914 11.3765 63.1891 11.1665 62.1625 11.1665H55.4425V27.4998H58.5225V21.5265H62.1625C63.158 21.5265 64.0447 21.3243 64.8225 20.9198C65.6158 20.4998 66.238 19.9165 66.6891 19.1698C67.1558 18.4076 67.3891 17.5209 67.3891 16.5098V16.1832C67.3891 15.1565 67.1636 14.2698 66.7125 13.5232C66.2769 12.7765 65.6625 12.2009 64.8691 11.7965ZM63.6325 18.1198C63.1814 18.5243 62.5902 18.7265 61.8591 18.7265H58.5225V13.9665H61.8591C62.5902 13.9665 63.1814 14.1687 63.6325 14.5732C64.0836 14.9776 64.3091 15.5298 64.3091 16.2298V16.4632C64.3091 17.1632 64.0836 17.7154 63.6325 18.1198Z" fill="#D8FFFF"/>
<path fill-rule="evenodd" clip-rule="evenodd" d="M73.6844 27.8265C72.5333 27.8265 71.4988 27.5932 70.5811 27.1265C69.6633 26.6598 68.9399 25.9832 68.4111 25.0965C67.8822 24.2098 67.6177 23.1443 67.6177 21.8998V21.5265C67.6177 20.2821 67.8822 19.2165 68.4111 18.3298C68.9399 17.4432 69.6633 16.7665 70.5811 16.2998C71.4988 15.8332 72.5333 15.5998 73.6844 15.5998C74.8355 15.5998 75.8699 15.8332 76.7877 16.2998C77.7055 16.7665 78.4288 17.4432 78.9577 18.3298C79.4866 19.2165 79.7511 20.2821 79.7511 21.5265V21.8998C79.7511 23.1443 79.4866 24.2098 78.9577 25.0965C78.4288 25.9832 77.7055 26.6598 76.7877 27.1265C75.8699 27.5932 74.8355 27.8265 73.6844 27.8265ZM73.6844 25.2132C74.5866 25.2132 75.3333 24.9254 75.9244 24.3498C76.5155 23.7587 76.8111 22.9187 76.8111 21.8298V21.5965C76.8111 20.5076 76.5155 19.6754 75.9244 19.0998C75.3488 18.5087 74.6022 18.2132 73.6844 18.2132C72.7822 18.2132 72.0355 18.5087 71.4444 19.0998C70.8533 19.6754 70.5577 20.5076 70.5577 21.5965V21.8298C70.5577 22.9187 70.8533 23.7587 71.4444 24.3498C72.0355 24.9254 72.7822 25.2132 73.6844 25.2132Z" fill="#D8FFFF"/>
<path d="M85.4515 16.2065C85.0626 16.4243 84.7826 16.7665 84.6115 17.2332H84.1915V15.9265H81.2982V27.4998H84.2382V20.9198C84.2382 20.0954 84.4793 19.4887 84.9615 19.0998C85.4437 18.6954 86.0582 18.4932 86.8048 18.4932H88.2515V18.4915H91.2495V24.8865C91.2495 25.6798 91.4828 26.3176 91.9495 26.7998C92.4317 27.2665 93.0539 27.4998 93.8161 27.4998H97.0828V25.0732H94.8428C94.4072 25.0732 94.1895 24.8398 94.1895 24.3732V18.4915H97.3628V15.8831H94.1895V12.3332H91.2495V15.8831H88.2515V15.8798H86.8515C86.3226 15.8798 85.8559 15.9887 85.4515 16.2065Z" fill="#D8FFFF"/>
<path fill-rule="evenodd" clip-rule="evenodd" d="M100.234 27.4065C100.887 27.6865 101.626 27.8265 102.451 27.8265C103.26 27.8265 103.897 27.7098 104.364 27.4765C104.831 27.2432 105.173 26.9787 105.391 26.6832C105.609 26.3721 105.749 26.1232 105.811 25.9365H106.254V25.9598C106.254 26.4265 106.441 26.7998 106.814 27.0798C107.187 27.3598 107.662 27.4998 108.237 27.4998H110.197V25.0732H109.264C108.829 25.0732 108.611 24.8398 108.611 24.3732V20.0565C108.611 18.6098 108.167 17.5054 107.281 16.7432C106.394 15.9809 105.189 15.5998 103.664 15.5998C102.669 15.5998 101.821 15.7554 101.121 16.0665C100.436 16.3621 99.8841 16.7587 99.4641 17.2565C99.0596 17.7387 98.7641 18.2754 98.5774 18.8665L101.284 19.7765C101.393 19.2476 101.626 18.8198 101.984 18.4932C102.342 18.1509 102.886 17.9798 103.617 17.9798C104.364 17.9798 104.909 18.1587 105.251 18.5165C105.593 18.8587 105.764 19.3021 105.764 19.8465V20.4998H102.591C101.72 20.4998 100.942 20.6398 100.257 20.9198C99.5885 21.1843 99.0596 21.5887 98.6707 22.1332C98.2974 22.6621 98.1107 23.3232 98.1107 24.1165C98.1107 24.9098 98.2974 25.5865 98.6707 26.1465C99.0596 26.6909 99.5807 27.1109 100.234 27.4065ZM104.971 24.7698C104.457 25.2209 103.789 25.4465 102.964 25.4465C102.342 25.4465 101.867 25.3143 101.541 25.0498C101.214 24.7854 101.051 24.4432 101.051 24.0232C101.051 23.6032 101.206 23.2765 101.517 23.0432C101.829 22.8098 102.256 22.6932 102.801 22.6932H105.764V22.9265C105.764 23.6887 105.5 24.3032 104.971 24.7698Z" fill="#D8FFFF"/>
<path d="M117.308 26.8465C118.273 27.4998 119.509 27.8265 121.018 27.8265C122.496 27.8265 123.67 27.4998 124.542 26.8465C125.428 26.1776 125.872 25.2365 125.872 24.0232C125.872 23.2143 125.662 22.5765 125.242 22.1098C124.837 21.6276 124.277 21.2621 123.562 21.0132C122.862 20.7487 122.076 20.5387 121.205 20.3832L120.552 20.2665C120.023 20.1732 119.603 20.0409 119.292 19.8698C118.98 19.6832 118.825 19.4032 118.825 19.0298C118.825 18.6876 118.973 18.4232 119.268 18.2365C119.564 18.0343 119.992 17.9332 120.552 17.9332C121.112 17.9332 121.578 18.0576 121.952 18.3065C122.34 18.5554 122.597 18.9754 122.722 19.5665L125.452 18.7265C125.187 17.7932 124.627 17.0387 123.772 16.4632C122.916 15.8876 121.843 15.5998 120.552 15.5998C119.183 15.5998 118.078 15.9109 117.238 16.5332C116.398 17.1398 115.978 18.0187 115.978 19.1698C115.978 19.9321 116.18 20.5543 116.585 21.0365C116.989 21.5187 117.526 21.8998 118.195 22.1798C118.864 22.4443 119.603 22.6543 120.412 22.8098L121.065 22.9265C121.749 23.0509 122.247 23.2143 122.558 23.4165C122.869 23.6032 123.025 23.8754 123.025 24.2332C123.025 24.5909 122.862 24.8943 122.535 25.1432C122.208 25.3765 121.703 25.4932 121.018 25.4932C120.567 25.4932 120.147 25.4309 119.758 25.3065C119.385 25.1665 119.066 24.9409 118.802 24.6298C118.553 24.3187 118.374 23.8909 118.265 23.3465L115.558 24.0465C115.76 25.2598 116.344 26.1932 117.308 26.8465Z" fill="#D8FFFF"/>
<path d="M111.18 27.4998V11.1665H114.12V27.4998H111.18Z" fill="#D8FFFF"/>
</svg>
