<svg width="130" height="40" viewBox="0 0 130 40" fill="none" xmlns="http://www.w3.org/2000/svg">
<path fill-rule="evenodd" clip-rule="evenodd" d="M17.3332 36.6668C26.5379 36.6668 33.9998 29.2049 33.9998 20.0001C33.9998 10.7954 26.5379 3.3335 17.3332 3.3335C8.12841 3.3335 0.666504 10.7954 0.666504 20.0001C0.666504 29.2049 8.12841 36.6668 17.3332 36.6668ZM22.5326 11.0975C22.7857 10.1985 21.9133 9.66694 21.1165 10.2346L9.9941 18.1581C9.13001 18.7737 9.26593 20.0001 10.1983 20.0001H13.1271V19.9775H18.8353L14.1842 21.6186L12.1338 28.9028C11.8807 29.8018 12.753 30.3334 13.5498 29.7657L24.6723 21.8422C25.5363 21.2266 25.4003 20.0001 24.4681 20.0001H20.0266L22.5326 11.0975Z" fill="#D8FFFF"/>
<path d="M108.163 14.0598C108.537 14.4021 108.988 14.5732 109.517 14.5732C110.061 14.5732 110.512 14.4021 110.87 14.0598C111.228 13.7176 111.407 13.2665 111.407 12.7065C111.407 12.1465 111.228 11.6954 110.87 11.3532C110.512 11.011 110.061 10.8398 109.517 10.8398C108.988 10.8398 108.537 11.011 108.163 11.3532C107.806 11.6954 107.627 12.1465 107.627 12.7065C107.627 13.2665 107.806 13.7176 108.163 14.0598Z" fill="#D8FFFF"/>
<path fill-rule="evenodd" clip-rule="evenodd" d="M52.3197 26.9865C51.5886 27.3287 50.733 27.4998 49.753 27.4998H42.333V11.1665H49.6597C50.6552 11.1665 51.5186 11.3376 52.2497 11.6798C52.9963 12.0065 53.5719 12.481 53.9763 13.1032C54.3963 13.7098 54.6063 14.441 54.6063 15.2965V15.5298C54.6063 16.2765 54.4663 16.891 54.1863 17.3732C53.9063 17.8398 53.5719 18.2054 53.183 18.4698C52.8097 18.7187 52.4519 18.8976 52.1097 19.0065V19.4265C52.4519 19.5198 52.8252 19.6987 53.2297 19.9632C53.6341 20.2121 53.9763 20.5776 54.2563 21.0598C54.5519 21.5421 54.6997 22.1721 54.6997 22.9498V23.1832C54.6997 24.0854 54.4897 24.8632 54.0697 25.5165C53.6497 26.1543 53.0663 26.6443 52.3197 26.9865ZM51.013 21.1765C50.6086 20.8498 50.0641 20.6865 49.3797 20.6865H45.413V24.6998H49.3797C50.0486 24.6998 50.5852 24.5365 50.9897 24.2098C51.4097 23.8832 51.6197 23.4165 51.6197 22.8098V22.5765C51.6197 21.9698 51.4175 21.5032 51.013 21.1765ZM50.9197 14.4565C50.5152 14.1298 49.9863 13.9665 49.333 13.9665H45.413V17.8865H49.333C49.9708 17.8865 50.4919 17.7232 50.8963 17.3965C51.3163 17.0698 51.5263 16.6187 51.5263 16.0432V15.8098C51.5263 15.2187 51.3241 14.7676 50.9197 14.4565Z" fill="#D8FFFF"/>
<path fill-rule="evenodd" clip-rule="evenodd" d="M61.6459 27.8265C60.4948 27.8265 59.4603 27.5932 58.5426 27.1265C57.6248 26.6598 56.9015 25.9832 56.3726 25.0965C55.8437 24.2098 55.5792 23.1443 55.5792 21.8998V21.5265C55.5792 20.2821 55.8437 19.2165 56.3726 18.3298C56.9015 17.4432 57.6248 16.7665 58.5426 16.2998C59.4603 15.8332 60.4948 15.5998 61.6459 15.5998C62.797 15.5998 63.8315 15.8332 64.7492 16.2998C65.667 16.7665 66.3903 17.4432 66.9192 18.3298C67.4481 19.2165 67.7126 20.2821 67.7126 21.5265V21.8998C67.7126 23.1443 67.4481 24.2098 66.9192 25.0965C66.3903 25.9832 65.667 26.6598 64.7492 27.1265C63.8315 27.5932 62.797 27.8265 61.6459 27.8265ZM61.6459 25.2132C62.5481 25.2132 63.2948 24.9254 63.8859 24.3498C64.477 23.7587 64.7726 22.9187 64.7726 21.8298V21.5965C64.7726 20.5076 64.477 19.6754 63.8859 19.0998C63.3103 18.5087 62.5637 18.2132 61.6459 18.2132C60.7437 18.2132 59.997 18.5087 59.4059 19.0998C58.8148 19.6754 58.5192 20.5076 58.5192 21.5965V21.8298C58.5192 22.9187 58.8148 23.7587 59.4059 24.3498C59.997 24.9254 60.7437 25.2132 61.6459 25.2132Z" fill="#D8FFFF"/>
<path d="M78.7243 27.4998C77.962 27.4998 77.3398 27.2665 76.8576 26.7998C76.3909 26.3176 76.1576 25.6798 76.1576 24.8865V18.3532H73.2643V15.9265H76.1576V12.3332H79.0976V15.9265H82.2709V18.3532H79.0976V24.3732C79.0976 24.8398 79.3154 25.0732 79.7509 25.0732H81.9909V27.4998H78.7243Z" fill="#D8FFFF"/>
<path d="M84.8622 26.8465C85.8266 27.4998 87.0633 27.8265 88.5722 27.8265C90.05 27.8265 91.2244 27.4998 92.0955 26.8465C92.9822 26.1776 93.4255 25.2365 93.4255 24.0232C93.4255 23.2143 93.2155 22.5765 92.7955 22.1098C92.3911 21.6276 91.8311 21.2621 91.1155 21.0132C90.4155 20.7487 89.63 20.5387 88.7589 20.3832L88.1055 20.2665C87.5766 20.1732 87.1566 20.041 86.8455 19.8698C86.5344 19.6832 86.3789 19.4032 86.3789 19.0298C86.3789 18.6876 86.5266 18.4232 86.8222 18.2365C87.1177 18.0343 87.5455 17.9332 88.1055 17.9332C88.6655 17.9332 89.1322 18.0576 89.5055 18.3065C89.8944 18.5554 90.1511 18.9754 90.2755 19.5665L93.0055 18.7265C92.7411 17.7932 92.1811 17.0387 91.3255 16.4632C90.47 15.8876 89.3966 15.5998 88.1055 15.5998C86.7366 15.5998 85.6322 15.911 84.7922 16.5332C83.9522 17.1398 83.5322 18.0187 83.5322 19.1698C83.5322 19.9321 83.7344 20.5543 84.1389 21.0365C84.5433 21.5187 85.08 21.8998 85.7489 22.1798C86.4178 22.4443 87.1566 22.6543 87.9655 22.8098L88.6189 22.9265C89.3033 23.051 89.8011 23.2143 90.1122 23.4165C90.4233 23.6032 90.5789 23.8754 90.5789 24.2332C90.5789 24.591 90.4155 24.8943 90.0889 25.1432C89.7622 25.3765 89.2566 25.4932 88.5722 25.4932C88.1211 25.4932 87.7011 25.431 87.3122 25.3065C86.9389 25.1665 86.62 24.941 86.3555 24.6298C86.1066 24.3187 85.9277 23.891 85.8189 23.3465L83.1122 24.0465C83.3144 25.2598 83.8978 26.1932 84.8622 26.8465Z" fill="#D8FFFF"/>
<path d="M98.5219 19.1232C98.0241 19.7143 97.7752 20.5465 97.7752 21.6198V27.4998H94.8352V11.1665H97.7752V17.3498H98.1952C98.3196 17.101 98.5141 16.8521 98.7785 16.6032C99.043 16.3543 99.393 16.1521 99.8285 15.9965C100.28 15.8254 100.847 15.7398 101.532 15.7398C102.434 15.7398 103.22 15.9498 103.889 16.3698C104.573 16.7743 105.102 17.3421 105.475 18.0732C105.849 18.7887 106.035 19.6287 106.035 20.5932V27.4998H103.095V20.8265C103.095 19.9554 102.877 19.3021 102.442 18.8665C102.022 18.431 101.415 18.2132 100.622 18.2132C99.7196 18.2132 99.0196 18.5165 98.5219 19.1232Z" fill="#D8FFFF"/>
<path d="M124.413 26.7998C123.946 26.3176 123.713 25.6798 123.713 24.8865V18.3532H117.931V27.4998H114.991V18.3532H112.051V15.9265H114.991V13.7798C114.991 12.9865 115.225 12.3565 115.691 11.8898C116.174 11.4076 116.796 11.1665 117.558 11.1665H120.591V13.5932H118.585C118.149 13.5932 117.931 13.8265 117.931 14.2932V15.9265H123.713V12.3332H126.653V15.9265H129.826V18.3532H126.653V24.3732C126.653 24.8398 126.871 25.0732 127.306 25.0732H129.546V27.4998H126.28C125.517 27.4998 124.895 27.2665 124.413 26.7998Z" fill="#D8FFFF"/>
<path d="M108.047 15.9265V27.4998H110.987V15.9265H108.047Z" fill="#D8FFFF"/>
<path d="M69.2597 11.1665V27.4998H72.1997V11.1665H69.2597Z" fill="#D8FFFF"/>
</svg>
