<svg width="130" height="40" viewBox="0 0 130 40" fill="none" xmlns="http://www.w3.org/2000/svg">
<g opacity="0.84">
<path fill-rule="evenodd" clip-rule="evenodd" d="M17.3337 36.6668C26.5384 36.6668 34.0003 29.2049 34.0003 20.0001C34.0003 10.7954 26.5384 3.3335 17.3337 3.3335C8.12889 3.3335 0.666992 10.7954 0.666992 20.0001C0.666992 29.2049 8.12889 36.6668 17.3337 36.6668ZM22.5331 11.0975C22.7862 10.1985 21.9137 9.66694 21.117 10.2346L9.99459 18.1581C9.1305 18.7737 9.26642 20.0001 10.1988 20.0001H13.1276V19.9775H18.8357L14.1847 21.6186L12.1343 28.9028C11.8812 29.8018 12.7535 30.3334 13.5503 29.7657L24.6727 21.8422C25.5368 21.2266 25.4008 20.0001 24.4686 20.0001H20.0271L22.5331 11.0975Z" fill="#101010"/>
</g>
<g opacity="0.84">
<path d="M108.164 14.0598C108.538 14.4021 108.989 14.5732 109.518 14.5732C110.062 14.5732 110.513 14.4021 110.871 14.0598C111.229 13.7176 111.408 13.2665 111.408 12.7065C111.408 12.1465 111.229 11.6954 110.871 11.3532C110.513 11.011 110.062 10.8398 109.518 10.8398C108.989 10.8398 108.538 11.011 108.164 11.3532C107.807 11.6954 107.628 12.1465 107.628 12.7065C107.628 13.2665 107.807 13.7176 108.164 14.0598Z" fill="#101010"/>
<path fill-rule="evenodd" clip-rule="evenodd" d="M52.3206 26.9865C51.5895 27.3287 50.734 27.4998 49.754 27.4998H42.334V11.1665H49.6607C50.6562 11.1665 51.5195 11.3376 52.2506 11.6798C52.9973 12.0065 53.5729 12.481 53.9773 13.1032C54.3973 13.7098 54.6073 14.441 54.6073 15.2965V15.5298C54.6073 16.2765 54.4673 16.891 54.1873 17.3732C53.9073 17.8398 53.5729 18.2054 53.184 18.4698C52.8106 18.7187 52.4529 18.8976 52.1107 19.0065V19.4265C52.4529 19.5198 52.8262 19.6987 53.2306 19.9632C53.6351 20.2121 53.9773 20.5776 54.2573 21.0598C54.5529 21.5421 54.7006 22.1721 54.7006 22.9498V23.1832C54.7006 24.0854 54.4907 24.8632 54.0706 25.5165C53.6507 26.1543 53.0673 26.6443 52.3206 26.9865ZM51.014 21.1765C50.6095 20.8498 50.0651 20.6865 49.3807 20.6865H45.414V24.6998H49.3807C50.0495 24.6998 50.5862 24.5365 50.9907 24.2098C51.4106 23.8832 51.6206 23.4165 51.6206 22.8098V22.5765C51.6206 21.9698 51.4184 21.5032 51.014 21.1765ZM50.9207 14.4565C50.5162 14.1298 49.9873 13.9665 49.334 13.9665H45.414V17.8865H49.334C49.9718 17.8865 50.4929 17.7232 50.8973 17.3965C51.3173 17.0698 51.5273 16.6187 51.5273 16.0432V15.8098C51.5273 15.2187 51.3251 14.7676 50.9207 14.4565Z" fill="#101010"/>
<path fill-rule="evenodd" clip-rule="evenodd" d="M61.6469 27.8265C60.4958 27.8265 59.4613 27.5932 58.5435 27.1265C57.6258 26.6598 56.9024 25.9832 56.3735 25.0965C55.8447 24.2098 55.5802 23.1443 55.5802 21.8998V21.5265C55.5802 20.2821 55.8447 19.2165 56.3735 18.3298C56.9024 17.4432 57.6258 16.7665 58.5435 16.2998C59.4613 15.8332 60.4958 15.5998 61.6469 15.5998C62.798 15.5998 63.8324 15.8332 64.7502 16.2998C65.668 16.7665 66.3913 17.4432 66.9202 18.3298C67.4491 19.2165 67.7135 20.2821 67.7135 21.5265V21.8998C67.7135 23.1443 67.4491 24.2098 66.9202 25.0965C66.3913 25.9832 65.668 26.6598 64.7502 27.1265C63.8324 27.5932 62.798 27.8265 61.6469 27.8265ZM61.6469 25.2132C62.5491 25.2132 63.2958 24.9254 63.8869 24.3498C64.478 23.7587 64.7735 22.9187 64.7735 21.8298V21.5965C64.7735 20.5076 64.478 19.6754 63.8869 19.0998C63.3113 18.5087 62.5647 18.2132 61.6469 18.2132C60.7447 18.2132 59.998 18.5087 59.4069 19.0998C58.8158 19.6754 58.5202 20.5076 58.5202 21.5965V21.8298C58.5202 22.9187 58.8158 23.7587 59.4069 24.3498C59.998 24.9254 60.7447 25.2132 61.6469 25.2132Z" fill="#101010"/>
<path d="M78.7252 27.4998C77.963 27.4998 77.3408 27.2665 76.8586 26.7998C76.3919 26.3176 76.1586 25.6798 76.1586 24.8865V18.3532H73.2652V15.9265H76.1586V12.3332H79.0986V15.9265H82.2719V18.3532H79.0986V24.3732C79.0986 24.8398 79.3163 25.0732 79.7519 25.0732H81.9919V27.4998H78.7252Z" fill="#101010"/>
<path d="M84.8632 26.8465C85.8276 27.4998 87.0643 27.8265 88.5732 27.8265C90.0509 27.8265 91.2254 27.4998 92.0965 26.8465C92.9832 26.1776 93.4265 25.2365 93.4265 24.0232C93.4265 23.2143 93.2165 22.5765 92.7965 22.1098C92.3921 21.6276 91.8321 21.2621 91.1165 21.0132C90.4165 20.7487 89.6309 20.5387 88.7598 20.3832L88.1065 20.2665C87.5776 20.1732 87.1576 20.041 86.8465 19.8698C86.5354 19.6832 86.3798 19.4032 86.3798 19.0298C86.3798 18.6876 86.5276 18.4232 86.8232 18.2365C87.1187 18.0343 87.5465 17.9332 88.1065 17.9332C88.6665 17.9332 89.1332 18.0576 89.5065 18.3065C89.8954 18.5554 90.1521 18.9754 90.2765 19.5665L93.0065 18.7265C92.7421 17.7932 92.1821 17.0387 91.3265 16.4632C90.4709 15.8876 89.3976 15.5998 88.1065 15.5998C86.7376 15.5998 85.6332 15.911 84.7932 16.5332C83.9532 17.1398 83.5332 18.0187 83.5332 19.1698C83.5332 19.9321 83.7354 20.5543 84.1398 21.0365C84.5443 21.5187 85.081 21.8998 85.7498 22.1798C86.4187 22.4443 87.1576 22.6543 87.9665 22.8098L88.6198 22.9265C89.3043 23.051 89.8021 23.2143 90.1132 23.4165C90.4243 23.6032 90.5798 23.8754 90.5798 24.2332C90.5798 24.591 90.4165 24.8943 90.0898 25.1432C89.7632 25.3765 89.2576 25.4932 88.5732 25.4932C88.1221 25.4932 87.7021 25.431 87.3132 25.3065C86.9398 25.1665 86.6209 24.941 86.3565 24.6298C86.1076 24.3187 85.9287 23.891 85.8198 23.3465L83.1132 24.0465C83.3154 25.2598 83.8987 26.1932 84.8632 26.8465Z" fill="#101010"/>
<path d="M98.5228 19.1232C98.0251 19.7143 97.7762 20.5465 97.7762 21.6198V27.4998H94.8362V11.1665H97.7762V17.3498H98.1962C98.3206 17.101 98.5151 16.8521 98.7795 16.6032C99.0439 16.3543 99.3939 16.1521 99.8295 15.9965C100.281 15.8254 100.848 15.7398 101.533 15.7398C102.435 15.7398 103.221 15.9498 103.889 16.3698C104.574 16.7743 105.103 17.3421 105.476 18.0732C105.849 18.7887 106.036 19.6287 106.036 20.5932V27.4998H103.096V20.8265C103.096 19.9554 102.878 19.3021 102.443 18.8665C102.023 18.431 101.416 18.2132 100.623 18.2132C99.7206 18.2132 99.0206 18.5165 98.5228 19.1232Z" fill="#101010"/>
<path d="M124.414 26.7998C123.947 26.3176 123.714 25.6798 123.714 24.8865V18.3532H117.932V27.4998H114.992V18.3532H112.052V15.9265H114.992V13.7798C114.992 12.9865 115.226 12.3565 115.692 11.8898C116.175 11.4076 116.797 11.1665 117.559 11.1665H120.592V13.5932H118.586C118.15 13.5932 117.932 13.8265 117.932 14.2932V15.9265H123.714V12.3332H126.654V15.9265H129.827V18.3532H126.654V24.3732C126.654 24.8398 126.872 25.0732 127.307 25.0732H129.547V27.4998H126.281C125.518 27.4998 124.896 27.2665 124.414 26.7998Z" fill="#101010"/>
<path d="M108.048 15.9265V27.4998H110.988V15.9265H108.048Z" fill="#101010"/>
<path d="M69.2606 11.1665V27.4998H72.2006V11.1665H69.2606Z" fill="#101010"/>
</g>
</svg>
