<svg width="127" height="40" viewBox="0 0 127 40" fill="none" xmlns="http://www.w3.org/2000/svg">
<g opacity="0.84">
<path opacity="0.5" fill-rule="evenodd" clip-rule="evenodd" d="M28.8223 7.00043L20.75 4.83746C20.1927 4.68814 19.741 5.03479 19.741 5.61172V13.9688C19.741 14.5457 20.1927 15.1345 20.75 15.2838L28.8223 17.4468C29.3796 17.5961 29.8314 17.2494 29.8314 16.6725V8.31543C29.8314 7.7385 29.3796 7.14975 28.8223 7.00043ZM20.75 1.70356C18.5209 1.10627 16.7139 2.49287 16.7139 4.80061V13.1577C16.7139 15.4654 18.5209 17.8204 20.75 18.4177L28.8223 20.5807C31.0514 21.178 32.8585 19.7914 32.8585 17.4836V9.12655C32.8585 6.8188 31.0514 4.46381 28.8223 3.86652L20.75 1.70356Z" fill="white"/>
<path opacity="0.7" fill-rule="evenodd" clip-rule="evenodd" d="M22.484 13.8087L12.3936 11.105C11.8363 10.9557 11.3845 11.3024 11.3845 11.8793V22.3256C11.3845 22.9026 11.8363 23.4913 12.3936 23.6406L22.484 26.3444C23.0412 26.4937 23.493 26.147 23.493 25.5701V15.1238C23.493 14.5468 23.0412 13.9581 22.484 13.8087ZM12.3936 7.97113C10.1645 7.37385 8.35742 8.76044 8.35742 11.0682V21.5145C8.35742 23.8223 10.1645 26.1773 12.3936 26.7745L22.484 29.4783C24.7131 30.0755 26.5201 28.689 26.5201 26.3812V15.9349C26.5201 13.6271 24.7131 11.2721 22.484 10.6748L12.3936 7.97113Z" fill="white"/>
<path fill-rule="evenodd" clip-rule="evenodd" d="M16.1446 20.6176L4.03616 17.3731C3.47888 17.2238 3.02712 17.5704 3.02712 18.1474V30.683C3.02712 31.2599 3.47888 31.8487 4.03616 31.998L16.1446 35.2424C16.7019 35.3918 17.1537 35.0451 17.1537 34.4682V21.9326C17.1537 21.3556 16.7019 20.7669 16.1446 20.6176ZM4.03616 14.2392C1.80705 13.6419 0 15.0285 0 17.3363V29.8719C0 32.1796 1.80705 34.5346 4.03616 35.1319L16.1446 38.3763C18.3737 38.9736 20.1808 37.587 20.1808 35.2793V22.7437C20.1808 20.4359 18.3737 18.0809 16.1446 17.4837L4.03616 14.2392Z" fill="white"/>
</g>
<g opacity="0.84">
<path d="M44.7003 27.1732C45.6492 27.6087 46.7381 27.8265 47.967 27.8265C49.1959 27.8265 50.2692 27.6165 51.187 27.1965C52.1203 26.7609 52.8437 26.1543 53.357 25.3765C53.8703 24.5832 54.127 23.6576 54.127 22.5998V22.3198C54.127 21.3398 53.9014 20.5465 53.4503 19.9398C52.9992 19.3176 52.4237 18.8587 51.7237 18.5632C51.0392 18.2676 50.3314 18.1198 49.6003 18.1198H48.737V17.7465L53.6603 15.1332V11.1665H42.087V13.8265H50.347V14.1998L45.0737 16.9998V20.2665H48.3403C48.8692 20.2665 49.3437 20.3443 49.7637 20.4998C50.1837 20.6398 50.5181 20.8654 50.767 21.1765C51.0159 21.4876 51.1403 21.8921 51.1403 22.3898V22.6232C51.1403 23.3543 50.8603 23.9609 50.3003 24.4432C49.7559 24.9254 48.9781 25.1665 47.967 25.1665C46.9714 25.1665 46.1703 24.9098 45.5637 24.3965C44.957 23.8676 44.6537 23.1676 44.6537 22.2965V21.9698H41.667V22.3898C41.667 23.5098 41.9314 24.4821 42.4603 25.3065C43.0048 26.1154 43.7514 26.7376 44.7003 27.1732Z" fill="white"/>
<path fill-rule="evenodd" clip-rule="evenodd" d="M64.8696 11.7965C64.0918 11.3765 63.1896 11.1665 62.163 11.1665H55.443V27.4998H58.523V21.5265H62.163C63.1585 21.5265 64.0452 21.3243 64.823 20.9198C65.6163 20.4998 66.2385 19.9165 66.6896 19.1698C67.1563 18.4076 67.3896 17.5209 67.3896 16.5098V16.1832C67.3896 15.1565 67.1641 14.2698 66.713 13.5232C66.2774 12.7765 65.663 12.2009 64.8696 11.7965ZM63.633 18.1198C63.1818 18.5243 62.5907 18.7265 61.8596 18.7265H58.523V13.9665H61.8596C62.5907 13.9665 63.1818 14.1687 63.633 14.5732C64.0841 14.9776 64.3096 15.5298 64.3096 16.2298V16.4632C64.3096 17.1632 64.0841 17.7154 63.633 18.1198Z" fill="white"/>
<path fill-rule="evenodd" clip-rule="evenodd" d="M73.6849 27.8265C72.5338 27.8265 71.4993 27.5932 70.5815 27.1265C69.6638 26.6598 68.9404 25.9832 68.4115 25.0965C67.8827 24.2098 67.6182 23.1443 67.6182 21.8998V21.5265C67.6182 20.2821 67.8827 19.2165 68.4115 18.3298C68.9404 17.4432 69.6638 16.7665 70.5815 16.2998C71.4993 15.8332 72.5338 15.5998 73.6849 15.5998C74.836 15.5998 75.8704 15.8332 76.7882 16.2998C77.706 16.7665 78.4293 17.4432 78.9582 18.3298C79.4871 19.2165 79.7515 20.2821 79.7515 21.5265V21.8998C79.7515 23.1443 79.4871 24.2098 78.9582 25.0965C78.4293 25.9832 77.706 26.6598 76.7882 27.1265C75.8704 27.5932 74.836 27.8265 73.6849 27.8265ZM73.6849 25.2132C74.5871 25.2132 75.3338 24.9254 75.9249 24.3498C76.516 23.7587 76.8115 22.9187 76.8115 21.8298V21.5965C76.8115 20.5076 76.516 19.6754 75.9249 19.0998C75.3493 18.5087 74.6027 18.2132 73.6849 18.2132C72.7827 18.2132 72.036 18.5087 71.4449 19.0998C70.8538 19.6754 70.5582 20.5076 70.5582 21.5965V21.8298C70.5582 22.9187 70.8538 23.7587 71.4449 24.3498C72.036 24.9254 72.7827 25.2132 73.6849 25.2132Z" fill="white"/>
<path d="M85.452 16.2065C85.0631 16.4243 84.7831 16.7665 84.612 17.2332H84.192V15.9265H81.2987V27.4998H84.2387V20.9198C84.2387 20.0954 84.4798 19.4887 84.962 19.0998C85.4442 18.6954 86.0587 18.4932 86.8053 18.4932H88.252V18.4915H91.25V24.8865C91.25 25.6798 91.4833 26.3176 91.95 26.7998C92.4322 27.2665 93.0544 27.4998 93.8166 27.4998H97.0833V25.0732H94.8433C94.4077 25.0732 94.19 24.8398 94.19 24.3732V18.4915H97.3633V15.8831H94.19V12.3332H91.25V15.8831H88.252V15.8798H86.852C86.3231 15.8798 85.8564 15.9887 85.452 16.2065Z" fill="white"/>
<path fill-rule="evenodd" clip-rule="evenodd" d="M100.235 27.4065C100.888 27.6865 101.627 27.8265 102.451 27.8265C103.26 27.8265 103.898 27.7098 104.365 27.4765C104.831 27.2432 105.173 26.9787 105.391 26.6832C105.609 26.3721 105.749 26.1232 105.811 25.9365H106.255V25.9598C106.255 26.4265 106.441 26.7998 106.815 27.0798C107.188 27.3598 107.662 27.4998 108.238 27.4998H110.198V25.0732H109.265C108.829 25.0732 108.611 24.8398 108.611 24.3732V20.0565C108.611 18.6098 108.168 17.5054 107.281 16.7432C106.395 15.9809 105.189 15.5998 103.665 15.5998C102.669 15.5998 101.821 15.7554 101.121 16.0665C100.437 16.3621 99.8846 16.7587 99.4646 17.2565C99.0601 17.7387 98.7646 18.2754 98.5779 18.8665L101.285 19.7765C101.393 19.2476 101.627 18.8198 101.985 18.4932C102.342 18.1509 102.887 17.9798 103.618 17.9798C104.365 17.9798 104.909 18.1587 105.251 18.5165C105.593 18.8587 105.765 19.3021 105.765 19.8465V20.4998H102.591C101.72 20.4998 100.942 20.6398 100.258 20.9198C99.589 21.1843 99.0601 21.5887 98.6712 22.1332C98.2979 22.6621 98.1112 23.3232 98.1112 24.1165C98.1112 24.9098 98.2979 25.5865 98.6712 26.1465C99.0601 26.6909 99.5812 27.1109 100.235 27.4065ZM104.971 24.7698C104.458 25.2209 103.789 25.4465 102.965 25.4465C102.342 25.4465 101.868 25.3143 101.541 25.0498C101.215 24.7854 101.051 24.4432 101.051 24.0232C101.051 23.6032 101.207 23.2765 101.518 23.0432C101.829 22.8098 102.257 22.6932 102.801 22.6932H105.765V22.9265C105.765 23.6887 105.5 24.3032 104.971 24.7698Z" fill="white"/>
<path d="M117.309 26.8465C118.273 27.4998 119.51 27.8265 121.019 27.8265C122.496 27.8265 123.671 27.4998 124.542 26.8465C125.429 26.1776 125.872 25.2365 125.872 24.0232C125.872 23.2143 125.662 22.5765 125.242 22.1098C124.838 21.6276 124.278 21.2621 123.562 21.0132C122.862 20.7487 122.076 20.5387 121.205 20.3832L120.552 20.2665C120.023 20.1732 119.603 20.0409 119.292 19.8698C118.981 19.6832 118.825 19.4032 118.825 19.0298C118.825 18.6876 118.973 18.4232 119.269 18.2365C119.564 18.0343 119.992 17.9332 120.552 17.9332C121.112 17.9332 121.579 18.0576 121.952 18.3065C122.341 18.5554 122.598 18.9754 122.722 19.5665L125.452 18.7265C125.188 17.7932 124.628 17.0387 123.772 16.4632C122.917 15.8876 121.843 15.5998 120.552 15.5998C119.183 15.5998 118.079 15.9109 117.239 16.5332C116.399 17.1398 115.979 18.0187 115.979 19.1698C115.979 19.9321 116.181 20.5543 116.585 21.0365C116.99 21.5187 117.527 21.8998 118.195 22.1798C118.864 22.4443 119.603 22.6543 120.412 22.8098L121.065 22.9265C121.75 23.0509 122.248 23.2143 122.559 23.4165C122.87 23.6032 123.025 23.8754 123.025 24.2332C123.025 24.5909 122.862 24.8943 122.535 25.1432C122.209 25.3765 121.703 25.4932 121.019 25.4932C120.568 25.4932 120.148 25.4309 119.759 25.3065C119.385 25.1665 119.066 24.9409 118.802 24.6298C118.553 24.3187 118.374 23.8909 118.265 23.3465L115.559 24.0465C115.761 25.2598 116.344 26.1932 117.309 26.8465Z" fill="white"/>
<path d="M111.181 27.4998V11.1665H114.121V27.4998H111.181Z" fill="white"/>
</g>
</svg>
