<svg width="170" height="40" viewBox="0 0 170 40" fill="none" xmlns="http://www.w3.org/2000/svg">
<path d="M12.7085 4.1665C12.7085 10.7249 7.39188 16.0415 0.833496 16.0415V23.9582H12.7085V35.8332H20.6252C20.6252 29.2748 25.9418 23.9582 32.5002 23.9582V16.0415H20.6252V4.1665H12.7085Z" fill="#D8FFFF"/>
<path d="M47.667 27.8C45.9003 27.8 44.3837 27.425 43.117 26.675C41.8503 25.9083 40.8753 24.85 40.192 23.5C39.5087 22.1333 39.167 20.5583 39.167 18.775C39.167 16.9917 39.5087 15.4167 40.192 14.05C40.8753 12.6833 41.8503 11.6167 43.117 10.85C44.3837 10.0833 45.9003 9.7 47.667 9.7C49.767 9.7 51.4837 10.225 52.817 11.275C54.167 12.3083 55.0087 13.7667 55.342 15.65H51.817C51.6003 14.7 51.1337 13.9583 50.417 13.425C49.717 12.875 48.7837 12.6 47.617 12.6C46.0003 12.6 44.7337 13.15 43.817 14.25C42.9003 15.35 42.442 16.8583 42.442 18.775C42.442 20.6917 42.9003 22.2 43.817 23.3C44.7337 24.3833 46.0003 24.925 47.617 24.925C48.7837 24.925 49.717 24.675 50.417 24.175C51.1337 23.6583 51.6003 22.95 51.817 22.05H55.342C55.0087 23.85 54.167 25.2583 52.817 26.275C51.4837 27.2917 49.767 27.8 47.667 27.8Z" fill="#D8FFFF"/>
<path d="M56.5996 27.5V9.5H59.7996V27.5H56.5996Z" fill="#D8FFFF"/>
<path d="M67.2693 27.8C66.1027 27.8 65.061 27.5167 64.1443 26.95C63.2277 26.3833 62.5027 25.6083 61.9693 24.625C61.436 23.6417 61.1693 22.525 61.1693 21.275C61.1693 20.025 61.436 18.9167 61.9693 17.95C62.5027 16.9667 63.2277 16.2 64.1443 15.65C65.061 15.0833 66.1027 14.8 67.2693 14.8C68.2027 14.8 69.0193 14.975 69.7193 15.325C70.4193 15.675 70.986 16.1667 71.4193 16.8L71.5943 15.1H74.6193V27.5H71.6193L71.4193 25.725C71.0193 26.275 70.486 26.7583 69.8193 27.175C69.1693 27.5917 68.3193 27.8 67.2693 27.8ZM67.9443 25C68.9777 25 69.8193 24.6583 70.4693 23.975C71.136 23.275 71.4693 22.3833 71.4693 21.3C71.4693 20.2167 71.136 19.3333 70.4693 18.65C69.8193 17.95 68.9777 17.6 67.9443 17.6C66.9277 17.6 66.086 17.9417 65.4193 18.625C64.7527 19.3083 64.4193 20.1917 64.4193 21.275C64.4193 22.3583 64.7527 23.25 65.4193 23.95C66.086 24.65 66.9277 25 67.9443 25Z" fill="#D8FFFF"/>
<path d="M76.3779 27.5V15.1H79.2029L79.4529 17.2C79.8363 16.4667 80.3863 15.8833 81.1029 15.45C81.8363 15.0167 82.6946 14.8 83.6779 14.8C85.2113 14.8 86.4029 15.2833 87.2529 16.25C88.1029 17.2167 88.5279 18.6333 88.5279 20.5V27.5H85.3279V20.8C85.3279 19.7333 85.1113 18.9167 84.6779 18.35C84.2446 17.7833 83.5696 17.5 82.6529 17.5C81.7529 17.5 81.0113 17.8167 80.4279 18.45C79.8613 19.0833 79.5779 19.9667 79.5779 21.1V27.5H76.3779Z" fill="#D8FFFF"/>
<path d="M95.7879 27.8C94.6212 27.8 93.5795 27.5167 92.6629 26.95C91.7462 26.3833 91.0212 25.6083 90.4879 24.625C89.9545 23.6417 89.6879 22.525 89.6879 21.275C89.6879 20.025 89.9545 18.9167 90.4879 17.95C91.0212 16.9667 91.7462 16.2 92.6629 15.65C93.5795 15.0833 94.6212 14.8 95.7879 14.8C96.7212 14.8 97.5379 14.975 98.2379 15.325C98.9379 15.675 99.5045 16.1667 99.9379 16.8V9.5H103.138V27.5H100.288L99.9379 25.725C99.5379 26.275 99.0046 26.7583 98.3379 27.175C97.6879 27.5917 96.8379 27.8 95.7879 27.8ZM96.4629 25C97.4962 25 98.3379 24.6583 98.9879 23.975C99.6545 23.275 99.9879 22.3833 99.9879 21.3C99.9879 20.2167 99.6545 19.3333 98.9879 18.65C98.3379 17.95 97.4962 17.6 96.4629 17.6C95.4462 17.6 94.6045 17.9417 93.9379 18.625C93.2712 19.3083 92.9379 20.1917 92.9379 21.275C92.9379 22.3583 93.2712 23.25 93.9379 23.95C94.6045 24.65 95.4462 25 96.4629 25Z" fill="#D8FFFF"/>
<path d="M110.921 27.8C109.671 27.8 108.563 27.5333 107.596 27C106.63 26.4667 105.871 25.7167 105.321 24.75C104.771 23.7833 104.496 22.6667 104.496 21.4C104.496 20.1167 104.763 18.975 105.296 17.975C105.846 16.975 106.596 16.2 107.546 15.65C108.513 15.0833 109.646 14.8 110.946 14.8C112.163 14.8 113.238 15.0667 114.171 15.6C115.105 16.1333 115.83 16.8667 116.346 17.8C116.88 18.7167 117.146 19.7417 117.146 20.875C117.146 21.0583 117.138 21.25 117.121 21.45C117.121 21.65 117.113 21.8583 117.096 22.075H107.671C107.738 23.0417 108.071 23.8 108.671 24.35C109.288 24.9 110.03 25.175 110.896 25.175C111.546 25.175 112.088 25.0333 112.521 24.75C112.971 24.45 113.305 24.0667 113.521 23.6H116.771C116.538 24.3833 116.146 25.1 115.596 25.75C115.063 26.3833 114.396 26.8833 113.596 27.25C112.813 27.6167 111.921 27.8 110.921 27.8ZM110.946 17.4C110.163 17.4 109.471 17.625 108.871 18.075C108.271 18.5083 107.888 19.175 107.721 20.075H113.896C113.846 19.2583 113.546 18.6083 112.996 18.125C112.446 17.6417 111.763 17.4 110.946 17.4Z" fill="#D8FFFF"/>
<path d="M123.463 27.8C122.363 27.8 121.396 27.625 120.563 27.275C119.73 26.9083 119.063 26.4083 118.563 25.775C118.063 25.1417 117.763 24.4083 117.663 23.575H120.888C120.988 24.0583 121.255 24.475 121.688 24.825C122.138 25.1583 122.713 25.325 123.413 25.325C124.113 25.325 124.621 25.1833 124.938 24.9C125.271 24.6167 125.438 24.2917 125.438 23.925C125.438 23.3917 125.205 23.0333 124.738 22.85C124.271 22.65 123.621 22.4583 122.788 22.275C122.255 22.1583 121.713 22.0167 121.163 21.85C120.613 21.6833 120.105 21.475 119.638 21.225C119.188 20.9583 118.821 20.625 118.538 20.225C118.255 19.8083 118.113 19.3 118.113 18.7C118.113 17.6 118.546 16.675 119.413 15.925C120.296 15.175 121.53 14.8 123.113 14.8C124.58 14.8 125.746 15.1417 126.613 15.825C127.496 16.5083 128.021 17.45 128.188 18.65H125.163C124.98 17.7333 124.288 17.275 123.088 17.275C122.488 17.275 122.021 17.3917 121.688 17.625C121.371 17.8583 121.213 18.15 121.213 18.5C121.213 18.8667 121.455 19.1583 121.938 19.375C122.421 19.5917 123.063 19.7917 123.863 19.975C124.73 20.175 125.521 20.4 126.238 20.65C126.971 20.8833 127.555 21.2417 127.988 21.725C128.421 22.1917 128.638 22.8667 128.638 23.75C128.655 24.5167 128.455 25.2083 128.038 25.825C127.621 26.4417 127.021 26.925 126.238 27.275C125.455 27.625 124.53 27.8 123.463 27.8Z" fill="#D8FFFF"/>
<path d="M135.107 27.5C133.807 27.5 132.765 27.1833 131.982 26.55C131.199 25.9167 130.807 24.7917 130.807 23.175V17.775H128.682V15.1H130.807L131.182 11.775H134.007V15.1H137.357V17.775H134.84C134.38 17.775 134.007 18.1481 134.007 18.6083V23.2C134.007 23.8 134.132 24.2167 134.382 24.45C134.649 24.6667 135.099 24.775 135.732 24.775H137.282V27.5H135.107Z" fill="#D8FFFF"/>
<path d="M140.329 13.175C139.746 13.175 139.263 13 138.879 12.65C138.513 12.3 138.329 11.8583 138.329 11.325C138.329 10.7917 138.513 10.3583 138.879 10.025C139.263 9.675 139.746 9.5 140.329 9.5C140.913 9.5 141.388 9.675 141.754 10.025C142.138 10.3583 142.329 10.7917 142.329 11.325C142.329 11.8583 142.138 12.3 141.754 12.65C141.388 13 140.913 13.175 140.329 13.175ZM138.729 27.5V15.1H141.929V27.5H138.729Z" fill="#D8FFFF"/>
<path d="M143.77 27.5V15.1H146.595L146.845 17.2C147.228 16.4667 147.778 15.8833 148.495 15.45C149.228 15.0167 150.086 14.8 151.07 14.8C152.603 14.8 153.795 15.2833 154.645 16.25C155.495 17.2167 155.92 18.6333 155.92 20.5V27.5H152.72V20.8C152.72 19.7333 152.503 18.9167 152.07 18.35C151.636 17.7833 150.961 17.5 150.045 17.5C149.145 17.5 148.403 17.8167 147.82 18.45C147.253 19.0833 146.97 19.9667 146.97 21.1V27.5H143.77Z" fill="#D8FFFF"/>
<path d="M163.504 27.8C162.254 27.8 161.146 27.5333 160.179 27C159.213 26.4667 158.454 25.7167 157.904 24.75C157.354 23.7833 157.079 22.6667 157.079 21.4C157.079 20.1167 157.346 18.975 157.879 17.975C158.429 16.975 159.179 16.2 160.129 15.65C161.096 15.0833 162.229 14.8 163.529 14.8C164.746 14.8 165.821 15.0667 166.754 15.6C167.688 16.1333 168.413 16.8667 168.929 17.8C169.463 18.7167 169.729 19.7417 169.729 20.875C169.729 21.0583 169.721 21.25 169.704 21.45C169.704 21.65 169.696 21.8583 169.679 22.075H160.254C160.321 23.0417 160.654 23.8 161.254 24.35C161.871 24.9 162.613 25.175 163.479 25.175C164.129 25.175 164.671 25.0333 165.104 24.75C165.554 24.45 165.888 24.0667 166.104 23.6H169.354C169.121 24.3833 168.729 25.1 168.179 25.75C167.646 26.3833 166.979 26.8833 166.179 27.25C165.396 27.6167 164.504 27.8 163.504 27.8ZM163.529 17.4C162.746 17.4 162.054 17.625 161.454 18.075C160.854 18.5083 160.471 19.175 160.304 20.075H166.479C166.429 19.2583 166.129 18.6083 165.579 18.125C165.029 17.6417 164.346 17.4 163.529 17.4Z" fill="#D8FFFF"/>
</svg>
