<svg width="170" height="40" viewBox="0 0 170 40" fill="none" xmlns="http://www.w3.org/2000/svg">
<g opacity="0.84">
<path d="M12.708 4.1665C12.708 10.7249 7.39139 16.0415 0.833008 16.0415V23.9582H12.708V35.8332H20.6247C20.6247 29.2748 25.9413 23.9582 32.4997 23.9582V16.0415H20.6247V4.1665H12.708Z" fill="white"/>
</g>
<g opacity="0.84">
<path d="M47.666 27.8C45.8993 27.8 44.3827 27.425 43.116 26.675C41.8493 25.9083 40.8743 24.85 40.191 23.5C39.5077 22.1333 39.166 20.5583 39.166 18.775C39.166 16.9917 39.5077 15.4167 40.191 14.05C40.8743 12.6833 41.8493 11.6167 43.116 10.85C44.3827 10.0833 45.8993 9.7 47.666 9.7C49.766 9.7 51.4827 10.225 52.816 11.275C54.166 12.3083 55.0077 13.7667 55.341 15.65H51.816C51.5993 14.7 51.1327 13.9583 50.416 13.425C49.716 12.875 48.7827 12.6 47.616 12.6C45.9993 12.6 44.7327 13.15 43.816 14.25C42.8993 15.35 42.441 16.8583 42.441 18.775C42.441 20.6917 42.8993 22.2 43.816 23.3C44.7327 24.3833 45.9993 24.925 47.616 24.925C48.7827 24.925 49.716 24.675 50.416 24.175C51.1327 23.6583 51.5993 22.95 51.816 22.05H55.341C55.0077 23.85 54.166 25.2583 52.816 26.275C51.4827 27.2917 49.766 27.8 47.666 27.8Z" fill="white"/>
<path d="M56.5986 27.5V9.5H59.7986V27.5H56.5986Z" fill="white"/>
<path d="M67.2684 27.8C66.1017 27.8 65.06 27.5167 64.1434 26.95C63.2267 26.3833 62.5017 25.6083 61.9684 24.625C61.435 23.6417 61.1684 22.525 61.1684 21.275C61.1684 20.025 61.435 18.9167 61.9684 17.95C62.5017 16.9667 63.2267 16.2 64.1434 15.65C65.06 15.0833 66.1017 14.8 67.2684 14.8C68.2017 14.8 69.0184 14.975 69.7184 15.325C70.4184 15.675 70.985 16.1667 71.4184 16.8L71.5934 15.1H74.6184V27.5H71.6184L71.4184 25.725C71.0184 26.275 70.485 26.7583 69.8184 27.175C69.1684 27.5917 68.3184 27.8 67.2684 27.8ZM67.9434 25C68.9767 25 69.8184 24.6583 70.4684 23.975C71.135 23.275 71.4684 22.3833 71.4684 21.3C71.4684 20.2167 71.135 19.3333 70.4684 18.65C69.8184 17.95 68.9767 17.6 67.9434 17.6C66.9267 17.6 66.085 17.9417 65.4184 18.625C64.7517 19.3083 64.4184 20.1917 64.4184 21.275C64.4184 22.3583 64.7517 23.25 65.4184 23.95C66.085 24.65 66.9267 25 67.9434 25Z" fill="white"/>
<path d="M76.3769 27.5V15.1H79.2019L79.4519 17.2C79.8353 16.4667 80.3853 15.8833 81.1019 15.45C81.8353 15.0167 82.6936 14.8 83.6769 14.8C85.2103 14.8 86.4019 15.2833 87.2519 16.25C88.1019 17.2167 88.5269 18.6333 88.5269 20.5V27.5H85.3269V20.8C85.3269 19.7333 85.1103 18.9167 84.6769 18.35C84.2436 17.7833 83.5686 17.5 82.6519 17.5C81.7519 17.5 81.0103 17.8167 80.4269 18.45C79.8603 19.0833 79.5769 19.9667 79.5769 21.1V27.5H76.3769Z" fill="white"/>
<path d="M95.7869 27.8C94.6202 27.8 93.5786 27.5167 92.6619 26.95C91.7452 26.3833 91.0202 25.6083 90.4869 24.625C89.9536 23.6417 89.6869 22.525 89.6869 21.275C89.6869 20.025 89.9536 18.9167 90.4869 17.95C91.0202 16.9667 91.7452 16.2 92.6619 15.65C93.5786 15.0833 94.6202 14.8 95.7869 14.8C96.7202 14.8 97.5369 14.975 98.2369 15.325C98.9369 15.675 99.5036 16.1667 99.9369 16.8V9.5H103.137V27.5H100.287L99.9369 25.725C99.5369 26.275 99.0036 26.7583 98.3369 27.175C97.6869 27.5917 96.8369 27.8 95.7869 27.8ZM96.4619 25C97.4952 25 98.3369 24.6583 98.9869 23.975C99.6536 23.275 99.9869 22.3833 99.9869 21.3C99.9869 20.2167 99.6536 19.3333 98.9869 18.65C98.3369 17.95 97.4952 17.6 96.4619 17.6C95.4452 17.6 94.6036 17.9417 93.9369 18.625C93.2702 19.3083 92.9369 20.1917 92.9369 21.275C92.9369 22.3583 93.2702 23.25 93.9369 23.95C94.6036 24.65 95.4452 25 96.4619 25Z" fill="white"/>
<path d="M110.92 27.8C109.67 27.8 108.562 27.5333 107.595 27C106.629 26.4667 105.87 25.7167 105.32 24.75C104.771 23.7833 104.495 22.6667 104.495 21.4C104.495 20.1167 104.762 18.975 105.296 17.975C105.845 16.975 106.595 16.2 107.545 15.65C108.512 15.0833 109.646 14.8 110.945 14.8C112.162 14.8 113.237 15.0667 114.171 15.6C115.104 16.1333 115.829 16.8667 116.345 17.8C116.879 18.7167 117.146 19.7417 117.146 20.875C117.146 21.0583 117.137 21.25 117.12 21.45C117.12 21.65 117.112 21.8583 117.095 22.075H107.67C107.737 23.0417 108.07 23.8 108.67 24.35C109.287 24.9 110.029 25.175 110.896 25.175C111.546 25.175 112.087 25.0333 112.52 24.75C112.97 24.45 113.304 24.0667 113.52 23.6H116.77C116.537 24.3833 116.146 25.1 115.595 25.75C115.062 26.3833 114.395 26.8833 113.595 27.25C112.812 27.6167 111.92 27.8 110.92 27.8ZM110.945 17.4C110.162 17.4 109.47 17.625 108.87 18.075C108.271 18.5083 107.887 19.175 107.72 20.075H113.896C113.845 19.2583 113.545 18.6083 112.995 18.125C112.445 17.6417 111.762 17.4 110.945 17.4Z" fill="white"/>
<path d="M123.462 27.8C122.362 27.8 121.395 27.625 120.562 27.275C119.729 26.9083 119.062 26.4083 118.562 25.775C118.062 25.1417 117.762 24.4083 117.662 23.575H120.887C120.987 24.0583 121.254 24.475 121.687 24.825C122.137 25.1583 122.712 25.325 123.412 25.325C124.112 25.325 124.62 25.1833 124.937 24.9C125.27 24.6167 125.437 24.2917 125.437 23.925C125.437 23.3917 125.204 23.0333 124.737 22.85C124.27 22.65 123.62 22.4583 122.787 22.275C122.254 22.1583 121.712 22.0167 121.162 21.85C120.612 21.6833 120.104 21.475 119.637 21.225C119.187 20.9583 118.82 20.625 118.537 20.225C118.254 19.8083 118.112 19.3 118.112 18.7C118.112 17.6 118.545 16.675 119.412 15.925C120.295 15.175 121.529 14.8 123.112 14.8C124.579 14.8 125.745 15.1417 126.612 15.825C127.495 16.5083 128.02 17.45 128.187 18.65H125.162C124.979 17.7333 124.287 17.275 123.087 17.275C122.487 17.275 122.02 17.3917 121.687 17.625C121.37 17.8583 121.212 18.15 121.212 18.5C121.212 18.8667 121.454 19.1583 121.937 19.375C122.42 19.5917 123.062 19.7917 123.862 19.975C124.729 20.175 125.52 20.4 126.237 20.65C126.97 20.8833 127.554 21.2417 127.987 21.725C128.42 22.1917 128.637 22.8667 128.637 23.75C128.654 24.5167 128.454 25.2083 128.037 25.825C127.62 26.4417 127.02 26.925 126.237 27.275C125.454 27.625 124.529 27.8 123.462 27.8Z" fill="white"/>
<path d="M135.106 27.5C133.806 27.5 132.764 27.1833 131.981 26.55C131.198 25.9167 130.806 24.7917 130.806 23.175V17.775H128.681V15.1H130.806L131.181 11.775H134.006V15.1H137.356V17.775H134.839C134.379 17.775 134.006 18.1481 134.006 18.6083V23.2C134.006 23.8 134.131 24.2167 134.381 24.45C134.648 24.6667 135.098 24.775 135.731 24.775H137.281V27.5H135.106Z" fill="white"/>
<path d="M140.328 13.175C139.745 13.175 139.262 13 138.878 12.65C138.512 12.3 138.328 11.8583 138.328 11.325C138.328 10.7917 138.512 10.3583 138.878 10.025C139.262 9.675 139.745 9.5 140.328 9.5C140.912 9.5 141.387 9.675 141.753 10.025C142.137 10.3583 142.328 10.7917 142.328 11.325C142.328 11.8583 142.137 12.3 141.753 12.65C141.387 13 140.912 13.175 140.328 13.175ZM138.729 27.5V15.1H141.928V27.5H138.729Z" fill="white"/>
<path d="M143.769 27.5V15.1H146.594L146.844 17.2C147.227 16.4667 147.777 15.8833 148.494 15.45C149.227 15.0167 150.085 14.8 151.069 14.8C152.602 14.8 153.794 15.2833 154.644 16.25C155.494 17.2167 155.919 18.6333 155.919 20.5V27.5H152.719V20.8C152.719 19.7333 152.502 18.9167 152.069 18.35C151.635 17.7833 150.96 17.5 150.044 17.5C149.144 17.5 148.402 17.8167 147.819 18.45C147.252 19.0833 146.969 19.9667 146.969 21.1V27.5H143.769Z" fill="white"/>
<path d="M163.503 27.8C162.253 27.8 161.145 27.5333 160.178 27C159.212 26.4667 158.453 25.7167 157.903 24.75C157.353 23.7833 157.078 22.6667 157.078 21.4C157.078 20.1167 157.345 18.975 157.878 17.975C158.428 16.975 159.178 16.2 160.128 15.65C161.095 15.0833 162.228 14.8 163.528 14.8C164.745 14.8 165.82 15.0667 166.753 15.6C167.687 16.1333 168.412 16.8667 168.928 17.8C169.462 18.7167 169.729 19.7417 169.729 20.875C169.729 21.0583 169.72 21.25 169.703 21.45C169.703 21.65 169.695 21.8583 169.678 22.075H160.254C160.32 23.0417 160.653 23.8 161.254 24.35C161.87 24.9 162.612 25.175 163.479 25.175C164.128 25.175 164.67 25.0333 165.103 24.75C165.553 24.45 165.887 24.0667 166.103 23.6H169.354C169.12 24.3833 168.729 25.1 168.178 25.75C167.645 26.3833 166.978 26.8833 166.178 27.25C165.395 27.6167 164.503 27.8 163.503 27.8ZM163.528 17.4C162.745 17.4 162.053 17.625 161.453 18.075C160.853 18.5083 160.47 19.175 160.303 20.075H166.478C166.428 19.2583 166.129 18.6083 165.578 18.125C165.029 17.6417 164.345 17.4 163.528 17.4Z" fill="white"/>
</g>
</svg>
